<svg width="218" height="180" viewBox="0 0 218 180" fill="none" xmlns="http://www.w3.org/2000/svg">
<path d="M27.7673 75.6879L104.423 27.2561L181.079 75.6879V146.351H27.7673V75.6879Z" fill="#E6E7E8"/>
<path d="M181.079 146.706H27.7672C27.673 146.706 27.5827 146.668 27.5162 146.602C27.4496 146.535 27.4122 146.445 27.4122 146.351V75.6877C27.4109 75.628 27.4253 75.5691 27.454 75.5168C27.4827 75.4644 27.5246 75.4205 27.5755 75.3895L104.231 26.9861C104.288 26.9516 104.353 26.9333 104.42 26.9333C104.486 26.9333 104.551 26.9516 104.608 26.9861L181.292 75.425C181.344 75.4557 181.387 75.4993 181.417 75.5516C181.446 75.6039 181.462 75.663 181.462 75.7232V146.386C181.453 146.479 181.408 146.565 181.336 146.625C181.265 146.685 181.172 146.714 181.079 146.706ZM28.1009 145.996H180.759V75.8865L104.423 27.6961L28.1009 75.8865V145.996Z" fill="#231F20"/>
<path d="M123.097 56.6658C125.646 52.4552 126.292 47.3358 126.058 42.4224C125.888 37.0467 124.471 31.7842 121.919 27.05C120.882 25.017 119.36 23.2708 117.488 21.9661C115.187 20.5461 113.618 21.5046 111.367 21.1212C109.464 20.7946 107.476 19.4384 105.368 19.0905C100.503 18.2588 95.5036 19.3043 91.3798 22.0158C84.1658 26.8938 80.8357 36.2166 73.3803 40.7467C66.074 45.1631 56.7227 43.8354 48.5289 46.2779C45.0703 47.3144 41.8478 49.0174 39.0428 51.2908C37.105 52.7743 35.5192 54.668 34.3991 56.8362C32.4749 60.855 32.979 65.6407 34.3991 69.8796C35.8192 74.2393 38.2191 78.4001 41.9397 81.1053C45.0568 83.3562 48.8839 84.3928 52.6684 85.0745C57.8162 86.0046 63.1486 86.3525 68.2893 85.2378C72.0833 84.4721 75.6194 82.7517 78.5636 80.2391C79.8274 79.1101 80.5233 77.5693 81.7019 76.4475C83.3279 74.9067 85.8628 73.9623 87.7657 72.7837C90.7407 70.9305 93.7229 68.9566 97.1169 68.0761C105.737 65.8324 117.9 65.2217 123.097 56.6658Z" fill="white"/>
<path d="M61.4229 86.2887C58.4587 86.2634 55.5027 85.9735 52.59 85.4224C49.3097 84.8331 45.1133 83.839 41.7264 81.4036C38.3396 78.9682 35.7053 75.0132 34.0722 70.043C32.9078 66.4928 31.9421 61.2598 34.1219 56.7581C35.2515 54.5335 36.8678 52.592 38.8508 51.0778C41.6867 48.778 44.9456 47.0557 48.4434 46.0081C51.7537 45.1338 55.1348 44.554 58.5473 44.2756C63.8442 43.6934 68.85 43.1396 73.2096 40.5053C77.0154 38.2048 79.7917 34.541 82.4827 30.9979C85.0318 27.6394 87.6731 24.1673 91.1949 21.7674C95.3778 19.005 100.453 17.9317 105.396 18.7639C106.526 19.0029 107.623 19.3797 108.662 19.8858C109.546 20.2991 110.472 20.6157 111.424 20.8301C112.144 20.9308 112.873 20.9475 113.597 20.8798C115.008 20.6765 116.445 20.9755 117.658 21.7248C119.583 23.0482 121.145 24.8326 122.202 26.9152C124.789 31.6916 126.221 37.0073 126.384 42.4366C126.661 48.259 125.674 53.0872 123.374 56.8575C119.114 63.8301 110.394 65.6123 102.683 67.1886C100.738 67.5862 98.9059 67.9555 97.1947 68.4028C94.1345 69.1909 91.3653 70.9234 88.6743 72.5991L87.9642 73.0606C87.2542 73.4796 86.5441 73.8701 85.7986 74.2535C84.4137 74.8875 83.1215 75.7068 81.9573 76.6889C81.4305 77.2281 80.955 77.8153 80.5372 78.4427C80.0431 79.1868 79.4667 79.8727 78.8189 80.4877C75.8293 83.0683 72.2245 84.8341 68.3529 85.6141C66.0742 86.0892 63.7505 86.3154 61.4229 86.2887ZM102.13 19.1757C98.371 19.1561 94.6922 20.2588 91.5641 22.3425C88.1204 24.6643 85.5217 28.0938 83.001 31.4097C80.2745 35.0025 77.4556 38.7231 73.5433 41.0805C69.063 43.7928 63.7519 44.375 58.6325 44.9431C55.2607 45.2131 51.9197 45.7834 48.6493 46.6472C45.231 47.677 42.047 49.3655 39.2768 51.6174C37.3716 53.0658 35.8142 54.9216 34.7184 57.0492C32.6592 61.3521 33.5752 66.3863 34.7184 69.83C36.3088 74.7221 38.8721 78.5421 42.1312 80.8924C45.3902 83.2426 49.5227 84.2296 52.7321 84.8118C58.7106 85.884 63.7661 85.9408 68.2038 84.9751C71.9642 84.2205 75.4663 82.5086 78.3716 80.0048C78.9841 79.4212 79.5294 78.7711 79.9976 78.0664C80.4414 77.404 80.9479 76.7858 81.51 76.2203C82.7175 75.1944 84.0602 74.3391 85.5004 73.6784C86.2601 73.2879 86.9702 72.9186 87.6305 72.5139L88.3831 72.0453C91.1026 70.3483 93.9144 68.5874 97.074 67.785C98.8065 67.3377 100.624 66.9614 102.591 66.5638C110.181 65.023 118.773 63.2692 122.863 56.538L123.14 56.7084L122.863 56.538C125.064 52.9026 126.044 48.1738 125.774 42.4792C125.618 37.152 124.215 31.9355 121.677 27.2489C120.672 25.2597 119.189 23.5517 117.36 22.2786C116.256 21.6081 114.949 21.3561 113.675 21.5686C112.901 21.6344 112.122 21.613 111.353 21.5047C110.353 21.2859 109.381 20.9548 108.456 20.5177C107.469 20.0477 106.43 19.6973 105.36 19.474C104.294 19.2838 103.213 19.1841 102.13 19.1757Z" fill="#231F20"/>
<path d="M152.067 49.7074L148.332 63.7661L157.328 65.3708L162.454 46.5903C162.454 46.5903 154.459 40.4697 153.224 40.4271C151.989 40.3845 152.067 49.7074 152.067 49.7074Z" fill="white"/>
<path d="M157.328 65.7259H157.264L148.282 64.1425C148.234 64.1345 148.188 64.1162 148.147 64.089C148.106 64.0618 148.071 64.0262 148.045 63.9846C148.019 63.943 148.002 63.8963 147.995 63.8477C147.988 63.799 147.992 63.7495 148.005 63.7023L151.712 49.7074C151.712 48.2021 151.712 41.3006 152.763 40.2852C152.822 40.2216 152.895 40.1716 152.976 40.1385C153.057 40.1054 153.144 40.0901 153.231 40.0935C154.502 40.1361 161.304 45.2981 162.66 46.3276C162.716 46.3711 162.758 46.4298 162.781 46.4967C162.803 46.5636 162.806 46.6356 162.788 46.704L157.655 65.4845C157.632 65.5539 157.589 65.6145 157.53 65.6578C157.472 65.7011 157.401 65.7249 157.328 65.7259ZM148.808 63.5035L157.087 64.9662L162.057 46.7253C158.216 43.7999 153.913 40.8035 153.231 40.7822C152.727 41.1585 152.415 45.7525 152.443 49.7287C152.447 49.7594 152.447 49.7904 152.443 49.821L148.808 63.5035Z" fill="#231F20"/>
<path d="M142.346 40.5124C142.346 40.5124 143.617 43.3525 145.449 43.814C147.281 44.2756 151.264 42.3088 151.726 42.5644C152.187 42.82 162.696 50.6872 163.718 50.9215C164.741 51.1558 166.622 48.6778 167.425 45.7311C167.425 45.7311 157.2 38.7586 156.533 38.0201C155.865 37.2817 155.07 32.8652 154.076 31.2463L142.346 40.5124Z" fill="white"/>
<path d="M163.825 51.2977C163.752 51.3046 163.678 51.3046 163.605 51.2977C162.966 51.1415 159.614 48.7628 154.041 44.6943C152.784 43.7713 151.69 42.9831 151.555 42.8979C151.42 42.8127 150.703 43.1535 150.135 43.3523C148.651 43.8423 146.621 44.5168 145.385 44.1902C143.411 43.6648 142.105 40.8033 142.048 40.6826C142.014 40.612 142.005 40.5318 142.023 40.4554C142.041 40.3791 142.085 40.3114 142.147 40.2637L153.856 31.0332C153.896 31.0026 153.942 30.9805 153.991 30.9683C154.039 30.9561 154.09 30.954 154.14 30.9622C154.239 30.9827 154.326 31.0414 154.381 31.1255C154.997 32.3881 155.474 33.7143 155.801 35.0804C156.015 36.0374 156.344 36.965 156.781 37.8424C157.25 38.3608 163.512 42.7062 167.609 45.5038C167.671 45.5437 167.719 45.6027 167.744 45.6718C167.77 45.7409 167.772 45.8165 167.751 45.8872C167.02 48.4717 165.209 51.2977 163.825 51.2977ZM151.605 42.1879C151.706 42.1839 151.806 42.2059 151.896 42.2518C152.045 42.3299 152.791 42.8766 154.459 44.0908C157.3 46.1428 163.101 50.403 163.768 50.5805C164.436 50.7581 166.125 48.7983 166.985 45.8801C165.259 44.7085 156.881 38.9714 156.242 38.2543C155.88 37.8566 155.574 36.8342 155.098 35.2153C154.796 34.0457 154.409 32.8995 153.941 31.7858L142.786 40.6116C143.134 41.279 144.206 43.118 145.534 43.4517C146.571 43.7216 148.566 43.0612 149.88 42.6281C150.433 42.4067 151.013 42.2587 151.605 42.1879Z" fill="#231F20"/>
<path d="M153.522 33.8949C153.438 34.6455 153.579 35.4042 153.927 36.0747C154.502 37.1043 157.051 38.4746 157.051 38.4746L158.826 34.9244L155.347 32.4109L153.522 33.8949Z" fill="#231F20"/>
<path d="M157.051 38.8296C156.994 38.8299 156.938 38.8152 156.888 38.787C156.611 38.645 154.225 37.3314 153.622 36.245C153.237 35.5076 153.081 34.6718 153.175 33.8451C153.185 33.759 153.228 33.6803 153.295 33.625L155.12 32.1197C155.183 32.0702 155.26 32.0432 155.34 32.0432C155.42 32.0432 155.498 32.0702 155.56 32.1197L159.032 34.6332C159.1 34.6817 159.148 34.7523 159.169 34.8328C159.19 34.9132 159.182 34.9984 159.146 35.0734L157.371 38.6236C157.349 38.666 157.319 38.7036 157.282 38.7341C157.246 38.7646 157.203 38.7874 157.158 38.8012C157.125 38.8177 157.088 38.8273 157.051 38.8296ZM153.863 34.0865C153.82 34.7154 153.95 35.3443 154.24 35.9042C154.609 36.6142 156.079 37.516 156.902 37.9917L158.372 35.0237L155.361 32.8439L153.863 34.0865Z" fill="#231F20"/>
<path d="M164.656 43.8496C164.656 43.8496 165.586 40.9171 163.946 40.7112C163.931 40.4531 163.85 40.2032 163.71 39.9856C163.571 39.7679 163.378 39.5899 163.149 39.4686C162.921 39.3473 162.665 39.2869 162.407 39.2931C162.148 39.2993 161.896 39.372 161.674 39.5041C161.674 39.5041 161.148 37.3243 159.43 37.7645C157.712 38.2047 156.348 42.3159 156.59 43.3525C156.831 44.3892 158.166 43.7573 158.841 42.7845C158.841 42.7845 157.967 44.4034 158.55 44.8294C159.402 45.4542 160.296 44.3466 161.02 43.5371C161.02 43.5371 159.948 45.433 161.525 45.6034C162.739 45.7383 163.868 43.2886 163.868 43.2886L164.656 43.8496Z" fill="white"/>
<path d="M161.588 45.9655H161.453C161.142 45.9655 160.843 45.8423 160.622 45.6228C160.402 45.4033 160.277 45.1053 160.275 44.794C159.685 45.3123 159.004 45.6389 158.301 45.1206C158.148 44.9834 158.038 44.8061 157.981 44.609C157.925 44.4119 157.925 44.2029 157.981 44.0058C157.675 44.1978 157.31 44.2757 156.952 44.2259C156.761 44.1881 156.587 44.0919 156.453 43.9507C156.32 43.8095 156.233 43.6302 156.206 43.4378C155.944 42.2378 157.357 37.935 159.316 37.4308C159.559 37.3582 159.815 37.3371 160.067 37.3689C160.319 37.4006 160.561 37.4846 160.779 37.6155C161.284 37.962 161.666 38.459 161.872 39.0355C162.102 38.9519 162.347 38.9163 162.591 38.9309C162.836 38.9456 163.074 39.0102 163.292 39.1207C163.748 39.4174 164.074 39.8772 164.201 40.4059C164.51 40.4954 164.775 40.6949 164.947 40.9668C165.579 41.9538 165.032 43.7502 164.947 43.9561C164.932 44.0092 164.904 44.0578 164.865 44.0974C164.827 44.1371 164.779 44.1666 164.727 44.1833C164.674 44.2014 164.617 44.2069 164.562 44.1995C164.507 44.1921 164.454 44.172 164.407 44.1407L163.924 43.807C163.584 44.5312 162.675 45.9655 161.588 45.9655ZM160.985 43.1822C161.062 43.1805 161.137 43.2056 161.198 43.2532C161.267 43.3055 161.315 43.3808 161.333 43.4655C161.351 43.5502 161.339 43.6386 161.297 43.7147C161.141 43.9916 160.871 44.6732 161.042 45.007C161.042 45.0567 161.141 45.2129 161.532 45.2555C162.242 45.3336 163.179 43.8354 163.513 43.1254C163.535 43.0791 163.566 43.0382 163.606 43.0051C163.645 42.9721 163.69 42.9477 163.74 42.9336C163.79 42.9184 163.843 42.915 163.895 42.9236C163.946 42.9322 163.995 42.9527 164.038 42.9833L164.436 43.2603C164.627 42.6294 164.605 41.9529 164.372 41.3361C164.317 41.2546 164.244 41.1867 164.16 41.1375C164.075 41.0883 163.98 41.0591 163.882 41.052C163.805 41.0407 163.734 41.0049 163.679 40.9499C163.624 40.8949 163.588 40.8237 163.576 40.7467C163.515 40.3409 163.295 39.976 162.966 39.7314C162.777 39.6558 162.573 39.6242 162.37 39.639C162.167 39.6537 161.97 39.7145 161.794 39.8166C161.747 39.8377 161.697 39.8487 161.645 39.8487C161.594 39.8487 161.543 39.8377 161.496 39.8166C161.449 39.7933 161.408 39.7604 161.375 39.72C161.342 39.6796 161.318 39.6326 161.304 39.5823C161.17 39.0354 160.855 38.55 160.41 38.2048C160.272 38.126 160.12 38.0765 159.962 38.0594C159.804 38.0423 159.645 38.0579 159.494 38.1054C157.981 38.4888 156.71 42.3656 156.902 43.2674C156.952 43.4875 157.044 43.5088 157.094 43.5159C157.387 43.4761 157.666 43.3705 157.912 43.2069C158.158 43.0434 158.364 42.8261 158.514 42.5715C158.566 42.4976 158.644 42.4461 158.732 42.4277C158.82 42.4092 158.913 42.4251 158.99 42.4721C159.065 42.5205 159.12 42.5952 159.144 42.6818C159.167 42.7684 159.158 42.8607 159.117 42.9407C158.755 43.6508 158.556 44.4176 158.72 44.5383C159.217 44.9005 159.806 44.3182 160.573 43.4662L160.722 43.2958C160.756 43.26 160.797 43.2314 160.842 43.2119C160.887 43.1924 160.936 43.1823 160.985 43.1822Z" fill="#231F20"/>
<path d="M157.065 35.0523C157.065 35.0523 156.093 33.3624 155.07 34.8464C154.048 36.3304 152.819 39.1067 154.523 39.4049C156.228 39.7031 157.506 36.5221 157.065 35.0523Z" fill="white"/>
<path d="M154.744 39.7668C154.651 39.7739 154.559 39.7739 154.467 39.7668C154.244 39.74 154.032 39.655 153.853 39.5204C153.673 39.3858 153.532 39.2063 153.444 39C152.947 37.8142 154.048 35.7054 154.779 34.6545C154.901 34.4305 155.079 34.2421 155.295 34.1076C155.512 33.9732 155.76 33.8974 156.015 33.8877C156.796 33.9232 157.314 34.7894 157.371 34.8818L157.406 34.9599C157.524 35.6684 157.486 36.3938 157.296 37.0864C157.106 37.7789 156.768 38.4221 156.306 38.9716C156.117 39.2074 155.88 39.4002 155.61 39.5373C155.341 39.6744 155.046 39.7527 154.744 39.7668ZM155.965 34.5764C155.731 34.5764 155.503 34.8249 155.361 35.0309C154.502 36.2734 153.799 37.9846 154.098 38.7018C154.14 38.7969 154.207 38.8789 154.292 38.9389C154.377 38.999 154.477 39.0348 154.58 39.0426C154.81 39.0569 155.04 39.013 155.249 38.915C155.457 38.8169 155.638 38.6679 155.773 38.4817C156.151 38.0268 156.432 37.4988 156.597 36.9307C156.762 36.3626 156.808 35.7666 156.732 35.18C156.618 34.9954 156.299 34.5906 155.979 34.5764H155.965Z" fill="#231F20"/>
<path d="M152.06 50.659C152.06 50.659 150.938 45.2982 150.831 44.3397C150.654 42.7137 151.037 40.1717 152.464 39.7741C153.892 39.3765 157.158 39.0002 156.618 40.4345C156.128 41.7409 153.267 41.9894 153.267 41.9894C153.267 41.9894 155.241 43.9776 154.943 45.9586" fill="white"/>
<path d="M152.06 51.0139C151.979 51.0143 151.9 50.987 151.837 50.9367C151.774 50.8863 151.73 50.8159 151.712 50.737C151.669 50.5169 150.59 45.3407 150.484 44.3467C150.299 42.6852 150.654 39.8805 152.372 39.3764C153.267 39.1279 156.001 38.6166 156.803 39.49C156.924 39.6248 157.003 39.7924 157.029 39.9717C157.056 40.151 157.029 40.3341 156.952 40.4982C156.547 41.5917 154.914 42.0248 153.97 42.1952C154.566 42.9479 155.525 44.4319 155.291 45.9514C155.284 45.998 155.267 46.0428 155.243 46.0832C155.219 46.1236 155.187 46.1588 155.149 46.1868C155.111 46.2148 155.068 46.2351 155.022 46.2465C154.976 46.2579 154.929 46.2601 154.882 46.2531C154.836 46.2461 154.791 46.23 154.75 46.2057C154.71 46.1814 154.675 46.1494 154.647 46.1115C154.619 46.0736 154.599 46.0305 154.587 45.9848C154.576 45.939 154.574 45.8915 154.581 45.8448C154.85 44.0626 153.026 42.1952 153.011 42.181C152.964 42.1323 152.931 42.0713 152.916 42.0049C152.901 41.9385 152.904 41.8692 152.926 41.8047C152.95 41.7418 152.992 41.687 153.046 41.6467C153.1 41.6065 153.164 41.5825 153.231 41.5775C153.941 41.5136 155.944 41.1515 156.278 40.2497C156.356 40.058 156.278 40.0012 156.278 39.9728C155.901 39.5539 153.934 39.6817 152.557 40.058C151.4 40.3775 151.016 42.6923 151.187 44.2402C151.293 45.1703 152.401 50.4814 152.408 50.5311C152.418 50.5769 152.419 50.6242 152.411 50.6704C152.402 50.7165 152.385 50.7605 152.359 50.7996C152.333 50.8387 152.299 50.8722 152.26 50.8981C152.221 50.9239 152.177 50.9416 152.131 50.95L152.06 51.0139Z" fill="#231F20"/>
<path d="M173.027 30.3304C173.027 30.3304 161.198 29.1588 156.37 31.9564C155.156 32.6808 153.994 33.4874 152.89 34.3705C150.27 36.4225 147.807 38.7514 145.889 40.0508C142.084 42.607 138.406 43.1253 135.899 39.0568C133.769 35.5847 135.012 33.9374 137.894 30.8487C139.314 29.3221 142.325 26.8015 144.917 24.011C146.449 22.4598 147.741 20.6889 148.751 18.7567C150.938 14.1557 150.32 7.10498 150.32 7.10498L173.027 30.3304Z" fill="white"/>
<path d="M140.571 42.3868C140.189 42.3904 139.808 42.3499 139.435 42.2661C138.622 42.0569 137.862 41.6813 137.202 41.1631C136.542 40.6449 135.997 39.9953 135.601 39.2555C133.307 35.5349 134.72 33.7385 137.632 30.6144C138.242 29.9611 139.123 29.1375 140.145 28.1931C141.565 26.8724 143.163 25.353 144.661 23.7767C146.169 22.2547 147.44 20.5146 148.431 18.6147C150.561 14.1414 149.972 7.18305 149.965 7.11204C149.959 7.03898 149.976 6.96594 150.013 6.90255C150.05 6.83916 150.105 6.78842 150.171 6.75702C150.238 6.72522 150.313 6.71564 150.386 6.72969C150.459 6.74374 150.525 6.78068 150.576 6.83513L173.297 30.0818C173.347 30.1338 173.379 30.1997 173.391 30.2707C173.402 30.3417 173.392 30.4145 173.361 30.4794C173.329 30.5457 173.279 30.6008 173.215 30.6376C173.152 30.6743 173.079 30.691 173.006 30.6854C172.885 30.6854 161.233 29.5564 156.561 32.2758C155.362 32.9913 154.214 33.7884 153.125 34.6616C152.052 35.5065 150.995 36.387 150.008 37.2319C148.761 38.3355 147.457 39.3735 146.102 40.3419C144.043 41.7052 142.197 42.3868 140.571 42.3868ZM150.732 8.0067C150.817 10.1368 150.81 15.2349 149.077 18.92C148.05 20.8834 146.736 22.683 145.179 24.2595C143.667 25.8855 142.055 27.3837 140.628 28.7115C139.62 29.6487 138.739 30.4652 138.15 31.0972C135.31 34.1149 134.174 35.5917 136.204 38.9076C136.553 39.5651 137.032 40.1439 137.614 40.6081C138.195 41.0722 138.866 41.4118 139.584 41.6058C141.274 41.975 143.326 41.3573 145.691 39.7739C147.025 38.8256 148.307 37.8064 149.532 36.7207C150.547 35.8686 151.591 34.9811 152.67 34.1362C153.796 33.2392 154.982 32.4208 156.22 31.6865C160.332 29.2937 169.193 29.7055 172.132 29.9256L150.732 8.0067Z" fill="#231F20"/>
<path d="M153.522 33.895C150.902 35.947 147.736 38.6664 145.889 40.0439C141.672 43.1965 139.002 43.5302 136.247 39.6321C133.407 35.6275 135.012 33.9518 137.894 30.856C139.314 29.3294 142.325 26.8088 144.917 24.0183C144.917 24.0183 145.08 26.9224 147.97 30.4655C149.389 32.1934 151.342 33.4 153.522 33.895Z" fill="#231F20"/>
<path d="M140.543 42.8345C140.324 42.8361 140.106 42.8195 139.89 42.7848C138.47 42.5646 137.22 41.6274 135.956 39.8381C132.967 35.6134 134.714 33.746 137.596 30.6502C138.242 29.9401 139.123 29.1378 140.145 28.1934C141.565 26.8728 143.163 25.3533 144.661 23.777C144.707 23.7252 144.768 23.6887 144.835 23.6722C144.902 23.6557 144.973 23.66 145.038 23.6847C145.103 23.7082 145.16 23.7503 145.201 23.8058C145.243 23.8613 145.268 23.9278 145.272 23.9971C145.272 23.9971 145.478 26.8373 148.247 30.2384C149.615 31.8974 151.492 33.0601 153.586 33.5471C153.653 33.5604 153.715 33.5919 153.766 33.6383C153.816 33.6847 153.852 33.7441 153.87 33.8099C153.884 33.8772 153.88 33.947 153.857 34.012C153.835 34.0769 153.795 34.1346 153.743 34.1791C152.536 35.1234 151.222 36.2027 149.944 37.2464C148.481 38.4464 147.104 39.5825 146.103 40.328C143.838 42.0392 142.062 42.8345 140.543 42.8345ZM144.675 24.7924C143.319 26.2124 141.899 27.5331 140.628 28.7118C139.62 29.649 138.739 30.4656 138.15 31.0975C135.31 34.1578 133.89 35.6702 136.538 39.4263C137.682 41.0452 138.782 41.8901 139.996 42.0818C141.466 42.309 143.213 41.599 145.677 39.76C146.664 39.0499 148.041 37.8926 149.497 36.6997C150.576 35.8122 151.683 34.9033 152.734 34.0655C150.759 33.4569 149.006 32.2817 147.693 30.6857C146.237 28.9865 145.203 26.9671 144.675 24.7924Z" fill="#231F20"/>
<path d="M176.308 29.3293C173.659 31.7079 167.787 29.7269 162.071 24.8915C160.606 23.6547 159.23 22.3165 157.953 20.8869C156.698 19.4839 155.54 17.9964 154.488 16.435C150.228 10.1724 148.9 4.10868 151.57 1.71585C154.864 -1.24502 163.087 2.53239 169.924 10.1582C176.762 17.784 179.616 26.3613 176.308 29.3293Z" fill="black"/>
<path d="M154.545 0.714662C158.571 0.714662 164.649 4.30746 169.903 10.1653C176.748 17.7911 179.616 26.3684 176.293 29.3364C175.456 30.0361 174.387 30.396 173.297 30.3446C170.294 30.3446 166.154 28.3494 162.057 24.8986C160.592 23.6618 159.216 22.3236 157.939 20.894C156.688 19.4882 155.535 17.9984 154.488 16.4349C150.228 10.1724 148.9 4.10865 151.57 1.71582C152.403 1.02428 153.463 0.667406 154.545 0.714662ZM154.545 0.00462277C153.279 -0.0497002 152.038 0.376361 151.073 1.19749C148.183 3.78913 149.312 10.073 153.877 16.8184C156.049 20.0249 158.643 22.9242 161.588 25.4382C165.849 28.9884 170.109 31.0476 173.283 31.0476C174.563 31.1013 175.815 30.6645 176.783 29.8263C178.608 28.1932 178.913 25.14 177.586 21.2348C175.988 16.9415 173.558 13.0059 170.436 9.65406C165.139 3.80334 158.919 0.00462277 154.545 0.00462277Z" fill="#231F20"/>
<path d="M166.793 18.9841L162.071 24.8917C160.606 23.6548 159.23 22.3167 157.953 20.8871C156.698 19.484 155.54 17.9965 154.488 16.4351L161.319 12.2388L166.793 18.9841Z" fill="white"/>
<path d="M166.801 18.994C167.664 18.2846 167.13 16.2062 165.606 14.3517C164.083 12.4972 162.148 11.5689 161.284 12.2783C160.421 12.9877 160.956 15.0661 162.479 16.9206C164.002 18.7751 165.937 19.7034 166.801 18.994Z" fill="#231F20"/>
<path d="M166.069 19.566C164.954 19.566 163.449 18.6643 162.192 17.1306C161.476 16.289 160.944 15.3071 160.63 14.2478C160.367 13.2254 160.516 12.423 161.049 11.9899C161.581 11.5568 162.391 11.5639 163.342 11.9899C164.319 12.5119 165.173 13.2356 165.849 14.1129C167.524 16.1507 168.028 18.4087 166.999 19.2607C166.732 19.4638 166.404 19.5713 166.069 19.566ZM162.014 12.3804C161.829 12.3703 161.645 12.4256 161.496 12.5366C161.198 12.7852 161.134 13.3461 161.319 14.0703C161.602 15.0318 162.086 15.9223 162.739 16.6833C164.23 18.501 165.948 19.211 166.559 18.7069C167.169 18.2028 166.807 16.378 165.316 14.5603C164.688 13.7716 163.902 13.1233 163.008 12.6573C162.7 12.4965 162.361 12.4022 162.014 12.3804Z" fill="#231F20"/>
<path d="M160.985 43.8921C160.922 43.8925 160.861 43.8753 160.807 43.8424C160.767 43.8196 160.731 43.7889 160.703 43.752C160.674 43.7152 160.653 43.673 160.641 43.628C160.629 43.583 160.627 43.536 160.633 43.4899C160.64 43.4438 160.655 43.3995 160.679 43.3595C161.121 42.6371 161.666 41.9839 162.298 41.4211C162.333 41.3848 162.374 41.3561 162.421 41.337C162.467 41.3179 162.517 41.3088 162.567 41.3102C162.617 41.3116 162.666 41.3236 162.711 41.3454C162.756 41.3671 162.796 41.3981 162.828 41.4364C162.86 41.4747 162.884 41.5193 162.898 41.5674C162.911 41.6154 162.915 41.6659 162.908 41.7154C162.901 41.7649 162.883 41.8124 162.856 41.8546C162.83 41.8969 162.794 41.9331 162.753 41.9608C162.201 42.4801 161.723 43.0725 161.333 43.7217C161.297 43.7801 161.245 43.8271 161.183 43.8573C161.122 43.8875 161.053 43.8995 160.985 43.8921Z" fill="#231F20"/>
<path d="M158.805 43.1395H158.748C158.703 43.1302 158.659 43.112 158.62 43.0859C158.582 43.0598 158.549 43.0263 158.523 42.9874C158.497 42.9485 158.479 42.9049 158.471 42.8591C158.462 42.8133 158.462 42.7663 158.471 42.7206C158.728 41.7072 159.328 40.814 160.168 40.1928C160.244 40.1363 160.338 40.1121 160.432 40.1254C160.525 40.1387 160.609 40.1885 160.665 40.2638C160.722 40.3392 160.746 40.4338 160.733 40.5271C160.719 40.6203 160.67 40.7044 160.594 40.7609C159.899 41.2794 159.398 42.0174 159.174 42.8555C159.156 42.9387 159.109 43.0128 159.041 43.0647C158.974 43.1167 158.89 43.1432 158.805 43.1395Z" fill="#231F20"/>
<path d="M163.832 43.6438C163.761 43.6443 163.691 43.6219 163.633 43.5799C163.595 43.5529 163.562 43.5187 163.537 43.4791C163.512 43.4395 163.495 43.3953 163.487 43.3491C163.479 43.3029 163.481 43.2556 163.491 43.2099C163.502 43.1642 163.521 43.121 163.548 43.0828L164.031 42.3728C164.088 42.2982 164.171 42.2479 164.263 42.2321C164.355 42.2163 164.45 42.2361 164.528 42.2876C164.604 42.3431 164.656 42.426 164.671 42.5188C164.687 42.6116 164.667 42.7069 164.613 42.7846L164.123 43.4946C164.091 43.5419 164.048 43.5803 163.997 43.6064C163.946 43.6325 163.889 43.6453 163.832 43.6438Z" fill="#231F20"/>
<path d="M141.423 42.1172C141.346 42.1177 141.272 42.0928 141.21 42.0462C138.072 39.6605 136.126 36.7635 135.743 33.8949V33.8168C135.721 33.7416 135.724 33.6611 135.752 33.5878C135.78 33.5146 135.832 33.4528 135.899 33.4121C135.939 33.3864 135.983 33.3688 136.029 33.3606C136.075 33.3524 136.123 33.3536 136.168 33.3642C136.214 33.3748 136.257 33.3946 136.295 33.4224C136.333 33.4501 136.365 33.4853 136.389 33.5257C136.431 33.6123 136.455 33.7065 136.46 33.8026C136.822 36.4866 138.661 39.2131 141.658 41.4782C141.718 41.5232 141.762 41.5862 141.784 41.658C141.806 41.7299 141.805 41.8068 141.78 41.8779C141.756 41.9489 141.71 42.0104 141.648 42.0534C141.586 42.0964 141.513 42.1187 141.438 42.1172H141.423Z" fill="white"/>
<path d="M139.669 30.785C139.621 30.7844 139.573 30.7733 139.528 30.7524C139.484 30.7316 139.445 30.7016 139.414 30.6643C139.381 30.6319 139.354 30.5933 139.336 30.5506C139.319 30.5079 139.309 30.4621 139.309 30.4158C139.309 30.3695 139.319 30.3237 139.336 30.281C139.354 30.2384 139.381 30.1997 139.414 30.1673L143.234 26.6171C143.266 26.5831 143.304 26.5561 143.347 26.5376C143.39 26.5191 143.436 26.5095 143.482 26.5095C143.529 26.5095 143.575 26.5191 143.618 26.5376C143.66 26.5561 143.699 26.5831 143.731 26.6171C143.764 26.6495 143.79 26.6882 143.808 26.7308C143.826 26.7735 143.835 26.8193 143.835 26.8656C143.835 26.9119 143.826 26.9577 143.808 27.0004C143.79 27.0431 143.764 27.0817 143.731 27.1141L139.911 30.6643C139.881 30.6998 139.844 30.7288 139.803 30.7496C139.761 30.7704 139.716 30.7824 139.669 30.785Z" fill="white"/>
<path d="M140.195 31.6369C140.096 31.6343 140.002 31.5936 139.932 31.5232C139.867 31.4557 139.83 31.3653 139.83 31.2712C139.83 31.1771 139.867 31.0867 139.932 31.0191L143.752 27.4689C143.819 27.4039 143.908 27.3674 144.001 27.3674C144.094 27.3674 144.183 27.4039 144.249 27.4689C144.283 27.5019 144.309 27.5412 144.327 27.5844C144.345 27.6277 144.354 27.6741 144.354 27.721C144.354 27.7678 144.345 27.8142 144.327 27.8575C144.309 27.9008 144.283 27.94 144.249 27.973L140.436 31.5232C140.372 31.5893 140.287 31.6297 140.195 31.6369Z" fill="white"/>
<path d="M140.799 32.6166C140.75 32.6177 140.702 32.6082 140.658 32.5885C140.614 32.5689 140.574 32.5396 140.543 32.503C140.51 32.4706 140.484 32.4319 140.466 32.3892C140.448 32.3466 140.438 32.3007 140.438 32.2544C140.438 32.2082 140.448 32.1623 140.466 32.1197C140.484 32.077 140.51 32.0383 140.543 32.0059L144.363 28.4557C144.395 28.4218 144.433 28.3947 144.476 28.3762C144.519 28.3577 144.565 28.3481 144.611 28.3481C144.658 28.3481 144.704 28.3577 144.747 28.3762C144.79 28.3947 144.828 28.4218 144.86 28.4557C144.893 28.4881 144.919 28.5268 144.937 28.5695C144.955 28.6121 144.964 28.658 144.964 28.7042C144.964 28.7505 144.955 28.7964 144.937 28.839C144.919 28.8817 144.893 28.9204 144.86 28.9528L141.04 32.503C141.01 32.5375 140.973 32.5654 140.931 32.5849C140.89 32.6045 140.844 32.6152 140.799 32.6166Z" fill="white"/>
<path d="M77.6049 87.3822L75.8228 126.733C75.8228 126.733 100.142 127.024 114.129 121.18C115.276 117.429 116.661 113.756 118.276 110.182C120.328 106.035 129.14 99.9215 126.37 84.045C126.37 84.045 147.132 97.1808 152.983 91.1454C158.833 85.1101 161.759 56.9215 161.759 56.9215L149.603 53.0163L144.079 70.3981C144.079 70.3981 109.046 53.4494 100.88 51.3051C97.8482 50.5099 88.426 55.5228 77.6262 62.4598" fill="black"/>
<path d="M100.127 63.106C100.127 63.106 105.758 80.6013 106.723 88.007C107.689 95.4128 107.831 107.654 107.831 107.654C107.831 107.654 116.742 80.3599 115.642 63.5036L100.127 63.106Z" fill="#231F20"/>
<path d="M107.831 107.973H107.789C107.715 107.963 107.647 107.927 107.597 107.871C107.548 107.815 107.52 107.743 107.519 107.668C107.519 107.547 107.363 95.3559 106.411 88.0567C105.46 80.7575 99.8859 63.3828 99.8291 63.2053C99.8147 63.1576 99.8116 63.1072 99.8202 63.0581C99.8287 63.0091 99.8486 62.9627 99.8783 62.9227C99.9079 62.8827 99.9465 62.8502 99.991 62.8277C100.035 62.8053 100.085 62.7935 100.134 62.7935L115.642 63.1911C115.72 63.191 115.796 63.2212 115.853 63.2754C115.91 63.3297 115.943 63.4037 115.947 63.4822C117.048 80.2036 108.222 107.505 108.137 107.753C108.116 107.818 108.076 107.875 108.021 107.914C107.966 107.954 107.899 107.975 107.831 107.973ZM100.56 63.4325C101.42 66.1448 106.163 81.2545 107.036 87.9644C107.746 93.5453 108.023 101.959 108.108 105.715C110.047 99.325 116.167 77.9031 115.343 63.823L100.56 63.4325Z" fill="#231F20"/>
<path d="M71.7615 147.622H138.867L114.151 121.18L75.8442 126.733C75.8442 126.733 71.2573 137.113 71.6905 144.398C71.7189 145.258 71.7402 146.358 71.7615 147.622Z" fill="#231F20"/>
<path d="M138.867 147.977H71.7613C71.7151 147.978 71.669 147.97 71.626 147.953C71.583 147.936 71.5438 147.91 71.5107 147.878C71.4777 147.845 71.4514 147.807 71.4335 147.764C71.4155 147.721 71.4063 147.675 71.4063 147.629C71.4063 146.436 71.3637 145.293 71.314 144.42C70.8809 137.128 75.3044 127.017 75.4961 126.584C75.5214 126.53 75.559 126.484 75.606 126.448C75.6529 126.412 75.7078 126.388 75.766 126.378L114.108 120.825C114.165 120.818 114.224 120.825 114.278 120.845C114.332 120.864 114.381 120.897 114.421 120.939L139.137 147.381C139.184 147.431 139.215 147.495 139.227 147.563C139.238 147.631 139.23 147.702 139.202 147.765C139.174 147.829 139.128 147.882 139.07 147.92C139.011 147.958 138.944 147.977 138.874 147.977H138.867ZM72.1235 147.267H138.044L114.016 121.556L76.0855 127.052C75.4819 128.472 71.6406 137.781 72.0383 144.377C72.0738 145.179 72.1235 146.195 72.1235 147.267Z" fill="#231F20"/>
<path d="M113.71 53.6977L115.635 63.5033C115.635 63.5033 115.684 69.1837 109.393 68.6369C107.535 68.4624 105.738 67.8753 104.135 66.9184C102.532 65.9616 101.163 64.659 100.127 63.1057L97.5783 45.9796C97.7977 42.8612 97.544 39.7276 96.8257 36.6852C104.061 35.187 108.733 28.6333 108.733 28.6333C108.733 28.6333 111.935 31.8995 113.242 32.8935C114.293 33.6137 115.247 34.4656 116.082 35.4284C117.452 37.1254 117.857 39.4969 118.212 41.5915C118.659 44.0777 118.88 46.5991 118.872 49.125C118.759 53.9178 113.71 53.6977 113.71 53.6977Z" fill="white"/>
<path d="M110.21 68.999C109.94 68.999 109.656 68.999 109.365 68.999C107.454 68.8269 105.607 68.227 103.96 67.2437C102.313 66.2603 100.908 64.9189 99.8504 63.3187C99.83 63.281 99.8156 63.2402 99.8078 63.198C99.8078 63.198 97.2659 46.1571 97.2588 46.0719C97.2303 45.7862 97.2303 45.4984 97.2588 45.2127C97.4233 42.384 97.1697 39.5464 96.5061 36.7916C96.4952 36.7507 96.4934 36.7079 96.5008 36.6662C96.5081 36.6245 96.5245 36.585 96.5487 36.5502C96.572 36.5142 96.6022 36.4831 96.6375 36.4587C96.6729 36.4344 96.7127 36.4172 96.7546 36.4082C103.777 34.9881 108.413 28.5481 108.456 28.4842C108.484 28.4457 108.521 28.4138 108.562 28.3905C108.604 28.3673 108.65 28.3532 108.697 28.3493C108.745 28.3448 108.793 28.3514 108.837 28.3687C108.881 28.3859 108.921 28.4133 108.953 28.4487C108.989 28.4487 112.155 31.7078 113.433 32.6663C114.485 33.4048 115.44 34.2732 116.274 35.2509C117.694 37.0402 118.127 39.5111 118.468 41.5631C118.919 44.0678 119.143 46.6083 119.135 49.1534C119.154 49.8024 119.037 50.4481 118.793 51.0495C118.548 51.6509 118.181 52.1949 117.715 52.6468C116.687 53.5219 115.393 54.0226 114.044 54.0669L115.897 63.4891C115.888 65.0539 115.266 66.5528 114.165 67.6642C113.064 68.5949 111.65 69.0721 110.21 68.999ZM100.44 62.9921C101.457 64.4823 102.788 65.7315 104.34 66.6516C105.892 67.5717 107.626 68.1403 109.422 68.3174C111.296 68.4736 112.759 68.0831 113.774 67.1458C114.727 66.1685 115.274 64.8675 115.308 63.5033L113.391 53.7616C113.383 53.713 113.385 53.6633 113.397 53.6157C113.409 53.568 113.431 53.5234 113.462 53.4847C113.493 53.4457 113.533 53.415 113.579 53.3952C113.625 53.3754 113.675 53.3671 113.725 53.3711C115.036 53.3965 116.314 52.9563 117.332 52.1285C117.725 51.7318 118.033 51.2589 118.237 50.7387C118.441 50.2185 118.536 49.6621 118.517 49.1037C118.524 46.5967 118.303 44.0942 117.857 41.627C117.509 39.5892 117.147 37.2674 115.798 35.6201C114.989 34.6825 114.066 33.85 113.05 33.142C111.942 32.3113 109.564 29.9398 108.79 29.1303C107.774 30.4439 103.521 35.5207 97.2375 36.9408C97.8722 39.6493 98.1114 42.4356 97.9475 45.2127C97.9284 45.449 97.9284 45.6865 97.9475 45.9228C97.9475 45.9228 97.9191 46.1003 100.44 62.9921Z" fill="#231F20"/>
<path d="M114.57 58.5261C114.57 58.5261 110.622 59.4563 107.554 57.2907C104.487 55.125 104.359 52.3772 104.359 52.3772C104.359 52.3772 109.216 54.4434 113.71 53.6979L114.57 58.5261Z" fill="#231F20"/>
<path d="M112.504 59.0445C110.681 59.0838 108.891 58.5607 107.377 57.5464C104.217 55.3168 104.075 52.5477 104.075 52.3915C104.071 52.3385 104.081 52.2853 104.105 52.2377C104.129 52.1902 104.165 52.15 104.21 52.1216C104.252 52.0899 104.302 52.0699 104.355 52.0636C104.407 52.0574 104.46 52.0652 104.509 52.0861C104.558 52.0861 109.344 54.1098 113.689 53.3855C113.77 53.3732 113.853 53.393 113.919 53.4408C113.985 53.4886 114.03 53.5605 114.044 53.6411L114.911 58.4694C114.925 58.5493 114.908 58.6318 114.863 58.6994C114.818 58.767 114.749 58.8144 114.669 58.8315C113.958 58.9832 113.231 59.0547 112.504 59.0445ZM104.785 52.8672C105.228 54.5764 106.288 56.0612 107.761 57.0351C110.21 58.7676 113.292 58.4552 114.236 58.2777L113.483 54.053C109.827 54.5571 106.106 53.3642 104.785 52.8672Z" fill="#231F20"/>
<path d="M108.47 36.9763C108.47 36.9763 112.525 41.0945 111.928 42.0531C111.332 43.0117 109.131 42.8767 109.131 42.8767" fill="white"/>
<path d="M109.471 43.1963H109.109C109.068 43.1936 109.028 43.1828 108.991 43.1646C108.954 43.1463 108.921 43.121 108.894 43.09C108.867 43.0589 108.847 43.0229 108.834 42.9839C108.82 42.9449 108.815 42.9037 108.818 42.8626C108.824 42.7791 108.862 42.7011 108.924 42.6453C108.986 42.5895 109.068 42.5605 109.152 42.5644C109.713 42.5644 111.282 42.5644 111.665 41.897C111.907 41.4993 110.316 39.3053 108.25 37.2036C108.221 37.1742 108.198 37.1394 108.183 37.1012C108.167 37.063 108.16 37.0222 108.16 36.981C108.16 36.9398 108.169 36.899 108.185 36.8611C108.201 36.8231 108.224 36.7887 108.254 36.7598C108.283 36.7309 108.318 36.7081 108.356 36.6926C108.394 36.6771 108.435 36.6694 108.476 36.6697C108.517 36.67 108.558 36.6785 108.596 36.6945C108.634 36.7106 108.668 36.734 108.697 36.7634C109.968 38.0556 112.851 41.1727 112.198 42.2307C111.658 43.0898 110.174 43.1963 109.471 43.1963Z" fill="#231F20"/>
<path d="M114.079 39.216C114.377 39.1471 114.514 38.6391 114.385 38.0812C114.256 37.5234 113.91 37.127 113.612 37.1959C113.314 37.2647 113.177 37.7728 113.306 38.3306C113.435 38.8884 113.781 39.2848 114.079 39.216Z" fill="#231F20"/>
<path d="M105.032 40.1352C105.331 40.0663 105.468 39.5583 105.339 39.0004C105.21 38.4426 104.864 38.0462 104.566 38.1151C104.268 38.1839 104.131 38.692 104.259 39.2498C104.388 39.8076 104.734 40.204 105.032 40.1352Z" fill="#231F20"/>
<path d="M99.9004 40.3277C98.9134 38.7302 96.6058 38.51 94.994 39.1562C94.4594 39.3474 93.9943 39.6946 93.6589 40.1527C93.3235 40.6109 93.1332 41.1591 93.1124 41.7265C93.1 42.4235 93.2255 43.116 93.4816 43.7643C93.9105 44.9798 94.5551 46.1079 95.3845 47.0944C95.771 47.6105 96.2814 48.0208 96.8685 48.2873C97.2383 48.4179 97.6387 48.4349 98.0183 48.3362C98.3979 48.2375 98.7393 48.0276 98.9986 47.7335" fill="white"/>
<path d="M97.5357 48.7417C97.2683 48.7415 97.0034 48.6909 96.7547 48.5926C96.1177 48.3036 95.5617 47.8622 95.1358 47.3074C94.2836 46.29 93.62 45.1286 93.1761 43.8779C92.9051 43.1862 92.7724 42.448 92.7856 41.7052C92.8129 41.0782 93.026 40.4735 93.3976 39.9679C93.7693 39.4622 94.2828 39.0783 94.8731 38.8651C96.6482 38.155 99.1333 38.439 100.177 40.1644C100.213 40.2374 100.22 40.321 100.198 40.3991C100.175 40.4772 100.124 40.5441 100.055 40.5866C99.9859 40.6292 99.9033 40.6445 99.8234 40.6294C99.7436 40.6144 99.6722 40.5701 99.6232 40.5052C98.7357 39.0852 96.6411 38.8509 95.1145 39.4615C94.6381 39.6304 94.2229 39.9374 93.9219 40.3434C93.6209 40.7494 93.4478 41.2358 93.4246 41.7407C93.415 42.3963 93.5332 43.0474 93.7725 43.6578C94.1894 44.8366 94.8147 45.9309 95.6186 46.8885C95.9728 47.36 96.4389 47.7358 96.9748 47.982C97.2885 48.0922 97.6281 48.1059 97.9496 48.021C98.2711 47.9362 98.5598 47.7569 98.7783 47.5062C98.8063 47.4692 98.8419 47.4385 98.8828 47.4163C98.9236 47.3941 98.9687 47.3808 99.015 47.3774C99.0614 47.3741 99.1079 47.3806 99.1516 47.3966C99.1952 47.4127 99.2349 47.4379 99.268 47.4705C99.3011 47.5031 99.3269 47.5424 99.3436 47.5857C99.3603 47.6291 99.3676 47.6755 99.3649 47.7219C99.3623 47.7683 99.3497 47.8136 99.3281 47.8548C99.3066 47.896 99.2765 47.9321 99.2398 47.9607C99.0214 48.197 98.7584 48.3876 98.4659 48.5217C98.1734 48.6558 97.8573 48.7305 97.5357 48.7417Z" fill="#231F20"/>
<path d="M112.446 44.1548L107.696 44.6163C107.696 44.6163 108.683 51.9581 110.82 51.7593C112.958 51.5605 112.965 46.2565 112.446 44.1548Z" fill="white"/>
<path d="M110.728 52.0788C108.491 52.0788 107.547 45.9157 107.384 44.6589C107.376 44.6175 107.378 44.575 107.389 44.5344C107.4 44.4938 107.42 44.4562 107.448 44.4246C107.472 44.3898 107.504 44.361 107.541 44.3401C107.577 44.3192 107.618 44.3068 107.661 44.3039L112.418 43.8423C112.492 43.835 112.567 43.8546 112.628 43.8976C112.69 43.9406 112.733 44.0041 112.752 44.0767C113.156 45.7098 113.291 49.6221 112.113 51.2765C111.975 51.4949 111.789 51.6796 111.571 51.8172C111.352 51.9548 111.105 52.0418 110.849 52.0717L110.728 52.0788ZM108.051 44.9003C108.449 47.5843 109.471 51.4469 110.728 51.4469H110.792C110.958 51.4233 111.116 51.3633 111.256 51.2712C111.396 51.1792 111.514 51.0573 111.601 50.9143C112.532 49.6008 112.574 46.3133 112.205 44.524L108.051 44.9003Z" fill="#231F20"/>
<path d="M124.332 101.086C124.275 101.086 124.219 101.07 124.17 101.041C124.121 101.012 124.081 100.97 124.053 100.92C124.026 100.87 124.012 100.814 124.014 100.757C124.015 100.7 124.032 100.644 124.063 100.596C124.112 100.504 129.331 91.7275 124.34 73.4511C124.32 73.3683 124.332 73.281 124.374 73.2071C124.416 73.1332 124.485 73.0782 124.567 73.0534C124.608 73.0417 124.651 73.0382 124.693 73.0433C124.736 73.0484 124.776 73.0619 124.814 73.0831C124.851 73.1043 124.883 73.1327 124.909 73.1666C124.935 73.2005 124.954 73.2393 124.964 73.2807C130.041 91.8553 124.837 100.575 124.609 100.972C124.576 101.013 124.534 101.044 124.485 101.064C124.437 101.084 124.384 101.092 124.332 101.086Z" fill="#231F20"/>
<path d="M27.7673 75.6877L104.423 130.993L181.079 75.6877V166.417H27.7673V75.6877Z" fill="white"/>
<path d="M181.079 166.772H27.7672C27.673 166.772 27.5827 166.734 27.5161 166.668C27.4496 166.601 27.4122 166.511 27.4122 166.417V75.6879C27.411 75.623 27.4285 75.5591 27.4624 75.5038C27.4964 75.4484 27.5455 75.4039 27.6039 75.3755C27.6592 75.3409 27.7232 75.3225 27.7885 75.3225C27.8538 75.3225 27.9177 75.3409 27.9731 75.3755L104.423 130.524L180.866 75.3755C180.921 75.3409 180.985 75.3225 181.051 75.3225C181.116 75.3225 181.18 75.3409 181.235 75.3755C181.294 75.4036 181.344 75.4478 181.38 75.5031C181.415 75.5584 181.434 75.6224 181.434 75.6879V166.417C181.432 166.51 181.394 166.6 181.328 166.666C181.262 166.732 181.173 166.77 181.079 166.772ZM28.1009 166.062H180.759V76.3838L104.629 131.277C104.568 131.321 104.495 131.345 104.42 131.345C104.344 131.345 104.271 131.321 104.21 131.277L28.1009 76.3838V166.062Z" fill="#231F20"/>
<path d="M27.7672 166.772C27.7034 166.772 27.6407 166.755 27.5857 166.722C27.5307 166.69 27.4855 166.643 27.4548 166.587C27.4107 166.505 27.4001 166.408 27.4252 166.318C27.4504 166.228 27.5093 166.152 27.5897 166.104L97.7274 125.98C97.8094 125.934 97.9062 125.922 97.9967 125.947C98.0873 125.973 98.164 126.033 98.2103 126.115C98.2343 126.155 98.2501 126.199 98.2566 126.245C98.2632 126.291 98.2604 126.338 98.2485 126.383C98.2366 126.428 98.2158 126.47 98.1872 126.507C98.1587 126.544 98.1231 126.575 98.0825 126.597L27.9377 166.722C27.8859 166.752 27.8273 166.769 27.7672 166.772Z" fill="#231F20"/>
<path d="M181.079 166.772C181.017 166.769 180.956 166.752 180.902 166.722L110.764 126.597C110.682 126.551 110.622 126.474 110.597 126.384C110.571 126.293 110.583 126.197 110.629 126.115C110.676 126.034 110.753 125.975 110.843 125.95C110.933 125.925 111.029 125.936 111.112 125.98L181.249 166.104C181.331 166.15 181.391 166.227 181.417 166.318C181.442 166.408 181.43 166.505 181.384 166.587C181.355 166.642 181.311 166.689 181.257 166.721C181.203 166.754 181.142 166.771 181.079 166.772Z" fill="#231F20"/>
<path d="M64.3129 124.801C64.3129 124.801 67.4158 132.881 68.1471 133.322C68.8784 133.762 77.5196 137.298 76.9019 138.952C76.2842 140.607 72.3931 138.59 72.3931 138.59C72.3931 138.59 77.9954 145.073 76.5185 146.216C75.0416 147.359 70.0713 149.681 68.0761 148.736C66.0809 147.792 56.1332 135.466 54.0244 130.112" fill="white"/>
<path d="M69.2831 149.333C68.8201 149.347 68.3597 149.26 67.934 149.077C65.8039 148.062 55.7923 135.587 53.6977 130.261C53.6809 130.218 53.6729 130.171 53.6742 130.124C53.6755 130.077 53.686 130.031 53.7051 129.988C53.7242 129.945 53.7516 129.906 53.7856 129.874C53.8197 129.842 53.8598 129.817 53.9036 129.8C53.9474 129.783 53.9942 129.775 54.0411 129.776C54.088 129.778 54.1342 129.788 54.177 129.807C54.2199 129.826 54.2586 129.854 54.2908 129.888C54.3231 129.922 54.3484 129.962 54.3652 130.006C56.4953 135.466 66.5068 147.615 68.2322 148.467C69.9576 149.319 74.8072 147.16 76.3125 145.989C76.3448 145.959 76.3709 145.922 76.3892 145.882C76.4075 145.842 76.4176 145.799 76.419 145.754C76.5539 144.334 73.3658 140.308 72.1587 138.874C72.1047 138.812 72.0742 138.732 72.0724 138.65C72.0707 138.567 72.0978 138.486 72.1491 138.422C72.2004 138.357 72.2727 138.312 72.3535 138.295C72.4343 138.278 72.5186 138.289 72.5919 138.327C73.3019 138.697 75.3326 139.577 76.2415 139.229C76.3247 139.201 76.4005 139.155 76.4632 139.093C76.5259 139.032 76.5739 138.957 76.6036 138.874C76.774 138.413 75.6521 137.255 69.3257 134.323C68.5588 133.968 68.1541 133.776 67.9908 133.67C67.224 133.18 64.753 126.874 64.0146 124.957C63.9975 124.914 63.9893 124.867 63.9904 124.82C63.9915 124.773 64.0019 124.727 64.0211 124.684C64.0402 124.641 64.0677 124.602 64.1019 124.57C64.1362 124.537 64.1765 124.512 64.2205 124.496C64.3081 124.464 64.4049 124.467 64.49 124.506C64.575 124.544 64.6415 124.615 64.6749 124.702C66.1518 128.543 67.9411 132.725 68.3813 133.08C68.502 133.158 69.0204 133.4 69.6239 133.677C74.722 136.034 77.7752 137.774 77.271 139.123C77.2057 139.3 77.1026 139.461 76.969 139.595C76.8354 139.728 76.6744 139.831 76.4971 139.897C75.5397 140.092 74.5449 139.978 73.6569 139.57C75.0273 141.281 77.2923 144.356 77.1503 145.818C77.1388 145.956 77.0995 146.09 77.0348 146.212C76.9702 146.334 76.8814 146.442 76.774 146.528C75.6024 147.416 71.825 149.333 69.2831 149.333Z" fill="#231F20"/>
<path d="M77.6262 62.488C59.364 74.2179 37.1539 91.479 35.2794 95.512C32.2831 101.902 54.6919 134.039 54.6919 134.039L66.8265 126.342L55.7357 102.25L77.6049 87.3749" fill="black"/>
<path d="M63.6028 97.2798C63.5502 97.2813 63.4981 97.2697 63.451 97.2462C63.4039 97.2227 63.3634 97.1879 63.333 97.1449C63.285 97.0737 63.2664 96.9867 63.2809 96.902C63.2955 96.8174 63.3421 96.7416 63.4111 96.6905L87.9643 79.5004C87.9989 79.4749 88.0384 79.4565 88.0803 79.4466C88.1222 79.4367 88.1657 79.4353 88.2081 79.4426C88.2506 79.4499 88.2911 79.4657 88.3273 79.4891C88.3635 79.5124 88.3946 79.5429 88.4187 79.5785C88.443 79.614 88.46 79.6538 88.4689 79.6958C88.4778 79.7378 88.4782 79.7812 88.4703 79.8234C88.4624 79.8656 88.4463 79.9059 88.4228 79.9418C88.3993 79.9778 88.369 80.0087 88.3335 80.033L63.7874 97.223C63.7339 97.2619 63.6689 97.2819 63.6028 97.2798Z" fill="#231F20"/>
<path d="M170.287 145.996L200.044 127.783L174.831 138.285L170.287 145.996Z" fill="#231F20"/>
<path d="M170.286 146.351C170.24 146.351 170.194 146.341 170.151 146.323C170.109 146.305 170.07 146.278 170.038 146.245C169.981 146.189 169.945 146.116 169.935 146.038C169.925 145.959 169.941 145.88 169.981 145.811L174.525 138.108C174.561 138.041 174.619 137.988 174.689 137.958L199.93 127.457C200.013 127.423 200.106 127.421 200.19 127.452C200.274 127.483 200.343 127.545 200.384 127.625C200.424 127.705 200.433 127.797 200.408 127.883C200.383 127.969 200.327 128.043 200.25 128.089L170.471 146.273C170.417 146.314 170.353 146.34 170.286 146.351ZM175.072 138.541L171.316 144.931L195.947 129.857L175.072 138.541Z" fill="#231F20"/>
<path d="M174.831 138.285L184.558 143.262L200.044 127.783L174.831 138.285Z" fill="white"/>
<path d="M184.558 143.582C184.506 143.583 184.455 143.571 184.409 143.546L174.682 138.576C174.626 138.549 174.579 138.507 174.548 138.454C174.516 138.401 174.501 138.339 174.504 138.278C174.508 138.216 174.528 138.156 174.563 138.104C174.598 138.053 174.646 138.012 174.703 137.986L199.931 127.485C200 127.458 200.076 127.455 200.147 127.477C200.218 127.499 200.279 127.544 200.321 127.606C200.364 127.667 200.383 127.742 200.375 127.816C200.367 127.89 200.333 127.959 200.279 128.01L184.793 143.489C184.763 143.521 184.726 143.545 184.686 143.561C184.645 143.577 184.602 143.584 184.558 143.582ZM175.598 138.32L184.494 142.864L198.653 128.713L175.598 138.32Z" fill="#231F20"/>
<path d="M200.044 127.783L168.007 135.438L160.722 131.27L200.044 127.783Z" fill="white"/>
<path d="M167.979 135.757C167.924 135.757 167.87 135.742 167.822 135.714L160.53 131.554C160.472 131.518 160.426 131.465 160.4 131.402C160.373 131.34 160.367 131.27 160.382 131.203C160.397 131.137 160.432 131.077 160.483 131.031C160.534 130.986 160.597 130.957 160.665 130.95L199.987 127.464C200.068 127.457 200.149 127.481 200.213 127.531C200.278 127.581 200.321 127.653 200.335 127.734C200.348 127.814 200.331 127.897 200.286 127.965C200.241 128.033 200.173 128.083 200.094 128.103L168.057 135.75L167.979 135.757ZM161.752 131.497L168.028 135.082L195.67 128.522L161.752 131.497Z" fill="#231F20"/>
<path d="M168.007 135.438L170.287 145.996L174.831 138.285L200.044 127.783L168.007 135.438Z" fill="white"/>
<path d="M170.286 146.322H170.237C170.172 146.313 170.112 146.284 170.064 146.24C170.015 146.195 169.982 146.138 169.967 146.074L167.695 135.508C167.685 135.467 167.684 135.425 167.691 135.383C167.698 135.342 167.713 135.302 167.736 135.267C167.758 135.231 167.787 135.2 167.822 135.176C167.856 135.152 167.895 135.134 167.936 135.125L199.973 127.478C200.054 127.452 200.142 127.458 200.218 127.497C200.294 127.536 200.351 127.603 200.378 127.684C200.404 127.765 200.397 127.853 200.359 127.929C200.32 128.005 200.253 128.062 200.172 128.089L175.079 138.547L170.592 146.159C170.562 146.213 170.517 146.257 170.463 146.286C170.409 146.315 170.348 146.327 170.286 146.322ZM168.39 135.672L170.428 145.108L174.547 138.114C174.584 138.055 174.639 138.008 174.703 137.979L196.189 129.033L168.39 135.672Z" fill="#231F20"/>
<path d="M163.718 147.466C163.643 147.464 163.569 147.438 163.509 147.391C163.449 147.345 163.405 147.28 163.385 147.207C163.364 147.134 163.367 147.056 163.394 146.985C163.421 146.914 163.47 146.854 163.534 146.812L164.72 146.053C164.799 146.001 164.895 145.983 164.988 146.002C165.08 146.021 165.161 146.076 165.213 146.156C165.265 146.235 165.283 146.331 165.264 146.424C165.245 146.516 165.189 146.597 165.11 146.649L163.91 147.416C163.852 147.449 163.786 147.466 163.718 147.466Z" fill="#D1D3D4"/>
<path d="M56.2329 180C56.1393 179.998 56.05 179.96 55.9838 179.894C55.9176 179.828 55.8797 179.738 55.8778 179.645C55.8778 179.552 55.9142 179.463 55.9793 179.396C56.0444 179.33 56.1328 179.292 56.2258 179.29L57.9157 179.254L59.0588 179.219C59.152 179.218 59.2419 179.253 59.3103 179.317C59.3788 179.38 59.4209 179.467 59.428 179.56C59.4299 179.607 59.4224 179.654 59.4058 179.698C59.3893 179.742 59.3641 179.783 59.3317 179.817C59.2993 179.852 59.2603 179.879 59.2171 179.898C59.1739 179.918 59.1274 179.928 59.0801 179.929L57.937 179.964L56.24 180H56.2329ZM53.3927 180C52.4271 180 51.4756 179.957 50.5525 179.922C50.459 179.916 50.3712 179.875 50.3077 179.806C50.2441 179.737 50.2097 179.646 50.2117 179.552C50.2136 179.506 50.2246 179.46 50.2441 179.418C50.2637 179.375 50.2914 179.337 50.3257 179.305C50.36 179.274 50.4002 179.249 50.444 179.233C50.4878 179.217 50.5343 179.21 50.5809 179.212C51.504 179.247 52.4484 179.276 53.4211 179.29C53.5153 179.29 53.6056 179.327 53.6721 179.394C53.7387 179.46 53.7761 179.551 53.7761 179.645C53.7752 179.693 53.7647 179.74 53.7452 179.785C53.7257 179.829 53.6976 179.868 53.6626 179.901C53.6275 179.934 53.5862 179.96 53.5411 179.977C53.496 179.994 53.4479 180.002 53.3998 180H53.3927ZM61.9132 179.808C61.8233 179.808 61.7369 179.773 61.672 179.711C61.6072 179.649 61.5689 179.564 61.5653 179.474C61.5624 179.428 61.5687 179.381 61.584 179.337C61.5992 179.293 61.623 179.252 61.654 179.217C61.685 179.182 61.7226 179.153 61.7646 179.133C61.8067 179.113 61.8523 179.101 61.899 179.098C62.8433 179.055 63.7877 178.999 64.7391 178.935C64.786 178.931 64.8331 178.937 64.8777 178.951C64.9223 178.966 64.9635 178.99 64.9986 179.021C65.0338 179.052 65.0623 179.09 65.0824 179.133C65.1024 179.175 65.1137 179.221 65.1155 179.268C65.1193 179.315 65.1139 179.361 65.0995 179.405C65.085 179.45 65.0619 179.49 65.0315 179.525C65.0011 179.561 64.9639 179.589 64.9222 179.61C64.8806 179.63 64.8352 179.642 64.7888 179.645C63.8445 179.709 62.9001 179.765 61.9487 179.808H61.9132ZM47.7479 179.758C46.7822 179.687 45.8379 179.602 44.9077 179.503C44.8147 179.492 44.7296 179.445 44.6711 179.372C44.6126 179.299 44.5853 179.205 44.5953 179.112C44.5987 179.065 44.6117 179.02 44.6336 178.978C44.6555 178.937 44.6857 178.9 44.7223 178.871C44.759 178.841 44.8013 178.82 44.8467 178.808C44.892 178.796 44.9394 178.793 44.9858 178.8C45.9018 178.892 46.839 178.977 47.826 179.048C47.9201 179.048 48.0104 179.086 48.077 179.152C48.1436 179.219 48.181 179.309 48.181 179.403C48.181 179.498 48.1436 179.588 48.077 179.654C48.0104 179.721 47.9201 179.758 47.826 179.758H47.7479ZM67.5793 179.439C67.4851 179.439 67.3948 179.401 67.3283 179.335C67.2617 179.268 67.2243 179.178 67.2243 179.084C67.2243 178.99 67.2617 178.899 67.3283 178.833C67.3948 178.766 67.4851 178.729 67.5793 178.729C68.5237 178.651 69.4609 178.566 70.4195 178.473C70.5129 178.467 70.6053 178.497 70.6778 178.556C70.7503 178.615 70.7976 178.7 70.81 178.793C70.8149 178.839 70.8105 178.887 70.797 178.932C70.7836 178.976 70.7614 179.018 70.7317 179.055C70.702 179.091 70.6653 179.121 70.6239 179.143C70.5825 179.165 70.5372 179.179 70.4905 179.183C69.5437 179.273 68.597 179.358 67.6503 179.439H67.5793ZM42.1031 179.148H42.0534C41.1019 179.006 40.1576 178.85 39.2132 178.679C39.1666 178.67 39.1222 178.652 39.0825 178.626C39.0428 178.6 39.0086 178.567 38.9819 178.527C38.9552 178.488 38.9365 178.444 38.9269 178.398C38.9172 178.351 38.9168 178.303 38.9256 178.257C38.9345 178.21 38.9525 178.166 38.9785 178.126C39.0045 178.086 39.0381 178.052 39.0773 178.025C39.1166 177.999 39.1607 177.98 39.2071 177.97C39.2536 177.961 39.3015 177.96 39.3481 177.969C40.2499 178.139 41.1871 178.296 42.1315 178.431C42.1777 178.438 42.222 178.454 42.262 178.478C42.302 178.502 42.3369 178.533 42.3646 178.571C42.3923 178.609 42.4123 178.651 42.4235 178.697C42.4346 178.742 42.4367 178.789 42.4297 178.835C42.4182 178.919 42.3779 178.996 42.3156 179.053C42.2534 179.11 42.1732 179.144 42.0889 179.148H42.1031ZM73.2312 178.892C73.1846 178.895 73.1379 178.889 73.0937 178.873C73.0496 178.858 73.0089 178.834 72.9739 178.803C72.939 178.772 72.9105 178.735 72.8901 178.693C72.8696 178.651 72.8577 178.605 72.8549 178.558C72.8521 178.512 72.8585 178.465 72.8738 178.421C72.889 178.377 72.9128 178.336 72.9438 178.301C72.9748 178.266 73.0124 178.238 73.0544 178.217C73.0964 178.197 73.142 178.185 73.1886 178.182C74.1353 178.078 75.082 177.964 76.0288 177.841C76.1229 177.829 76.2181 177.855 76.2933 177.913C76.3686 177.971 76.4177 178.056 76.4299 178.15C76.4422 178.244 76.4165 178.339 76.3586 178.415C76.3007 178.49 76.2152 178.539 76.1211 178.551L73.2809 178.885L73.2312 178.892ZM78.8618 178.182C78.7761 178.181 78.6933 178.15 78.6283 178.095C78.5633 178.039 78.5203 177.961 78.5068 177.877C78.4998 177.83 78.5022 177.782 78.5138 177.737C78.5254 177.691 78.5461 177.648 78.5745 177.61C78.6029 177.573 78.6386 177.541 78.6794 177.517C78.7202 177.493 78.7653 177.478 78.8121 177.472L81.6097 177.053C81.6554 177.045 81.7024 177.046 81.7477 177.057C81.793 177.067 81.8357 177.086 81.8735 177.113C81.9112 177.14 81.9431 177.175 81.9673 177.214C81.9915 177.254 82.0075 177.298 82.0144 177.344C82.0225 177.39 82.0215 177.438 82.0112 177.484C82.001 177.529 81.9817 177.573 81.9547 177.611C81.9276 177.649 81.8932 177.682 81.8535 177.707C81.8138 177.732 81.7695 177.748 81.7233 177.756L78.8831 178.175L78.8618 178.182ZM36.5364 178.111H36.4512C35.5068 177.891 34.5767 177.65 33.6891 177.401C33.5998 177.373 33.5247 177.312 33.4797 177.23C33.4347 177.147 33.4232 177.051 33.4477 176.961C33.4607 176.916 33.4825 176.874 33.5117 176.838C33.5409 176.802 33.5769 176.771 33.6178 176.749C33.6587 176.727 33.7036 176.712 33.7499 176.707C33.7963 176.702 33.8432 176.706 33.8879 176.719C34.7684 176.968 35.6843 177.209 36.6145 177.429C36.6601 177.439 36.7032 177.459 36.7413 177.486C36.7794 177.513 36.8117 177.547 36.8362 177.587C36.8607 177.626 36.877 177.671 36.884 177.717C36.8911 177.763 36.8887 177.81 36.8772 177.855C36.8537 177.93 36.8062 177.995 36.742 178.04C36.6778 178.085 36.6005 178.108 36.5222 178.104L36.5364 178.111ZM84.464 177.295C84.3808 177.296 84.2999 177.267 84.2361 177.213C84.1723 177.16 84.1297 177.086 84.1161 177.003C84.1016 176.91 84.1239 176.815 84.1782 176.738C84.2325 176.662 84.3147 176.609 84.4072 176.592L87.1977 176.095C87.2434 176.085 87.2906 176.085 87.3363 176.095C87.382 176.104 87.4254 176.123 87.4638 176.149C87.5023 176.176 87.535 176.21 87.56 176.249C87.585 176.289 87.6019 176.333 87.6095 176.379C87.6261 176.471 87.6056 176.566 87.5524 176.643C87.4992 176.72 87.4176 176.773 87.3255 176.79L84.5279 177.295H84.464ZM31.0762 176.521C31.0386 176.527 31.0001 176.527 30.9625 176.521C30.0537 176.201 29.1519 175.853 28.2928 175.491C28.2498 175.472 28.2109 175.446 28.1783 175.412C28.1458 175.378 28.1202 175.339 28.103 175.295C28.0858 175.252 28.0775 175.205 28.0784 175.158C28.0792 175.111 28.0894 175.065 28.1082 175.022C28.1456 174.937 28.215 174.87 28.3013 174.836C28.3875 174.801 28.4839 174.802 28.5697 174.838C29.4147 175.193 30.3022 175.548 31.1969 175.853C31.291 175.869 31.375 175.922 31.4302 176C31.4855 176.078 31.5075 176.174 31.4915 176.269C31.4755 176.363 31.4228 176.447 31.3449 176.502C31.267 176.557 31.1703 176.579 31.0762 176.563V176.521ZM90.0095 176.251C89.928 176.249 89.8493 176.221 89.7861 176.169C89.723 176.118 89.6791 176.046 89.6615 175.967C89.6522 175.921 89.652 175.874 89.6608 175.828C89.6697 175.782 89.6875 175.739 89.7132 175.7C89.7389 175.661 89.772 175.628 89.8107 175.601C89.8493 175.575 89.8927 175.557 89.9384 175.548L92.7147 174.966C92.7604 174.956 92.8075 174.956 92.8532 174.965C92.899 174.974 92.9426 174.992 92.9815 175.017C93.0204 175.043 93.0539 175.076 93.08 175.115C93.1061 175.153 93.1243 175.197 93.1336 175.243C93.144 175.288 93.1453 175.335 93.1373 175.38C93.1293 175.426 93.1122 175.47 93.0871 175.509C93.0619 175.548 93.0292 175.582 92.9909 175.608C92.9525 175.634 92.9093 175.652 92.8638 175.661L90.0804 176.244L90.0095 176.251ZM95.562 175.058C95.5153 175.063 95.4682 175.059 95.4231 175.046C95.3781 175.033 95.3361 175.011 95.2995 174.982C95.2629 174.952 95.2324 174.916 95.2099 174.875C95.1873 174.834 95.173 174.789 95.1679 174.742C95.1628 174.695 95.1669 174.648 95.18 174.603C95.1931 174.558 95.2149 174.516 95.2443 174.479C95.2736 174.443 95.3099 174.412 95.351 174.39C95.3921 174.367 95.4372 174.353 95.4838 174.348C96.4069 174.135 97.3229 173.922 98.2388 173.695C98.3301 173.673 98.4262 173.689 98.506 173.738C98.5858 173.787 98.6429 173.866 98.6648 173.957C98.6765 174.003 98.6789 174.051 98.6719 174.097C98.665 174.144 98.6488 174.189 98.6243 174.229C98.5999 174.269 98.5676 174.304 98.5295 174.332C98.4913 174.36 98.448 174.38 98.4021 174.39C97.4862 174.611 96.5702 174.831 95.6401 175.037L95.562 175.058ZM25.8432 174.298C25.7862 174.297 25.7304 174.282 25.6799 174.256C24.8207 173.815 23.9829 173.34 23.1876 172.835C23.1479 172.811 23.1135 172.779 23.0863 172.741C23.0591 172.703 23.0397 172.66 23.0291 172.614C23.0185 172.569 23.0171 172.521 23.0248 172.475C23.0325 172.429 23.0492 172.385 23.074 172.346C23.098 172.305 23.1299 172.27 23.1678 172.242C23.2058 172.214 23.2489 172.195 23.2947 172.184C23.3405 172.173 23.3879 172.172 23.4342 172.18C23.4805 172.189 23.5246 172.206 23.5639 172.232C24.3379 172.708 25.1615 173.169 26.0065 173.602C26.1006 173.624 26.1823 173.682 26.2336 173.764C26.2849 173.846 26.3015 173.945 26.2798 174.039C26.2582 174.133 26.2 174.215 26.1181 174.266C26.0362 174.317 25.9373 174.334 25.8432 174.312V174.298ZM101.107 173.716C101.013 173.727 100.918 173.701 100.844 173.642C100.769 173.583 100.721 173.498 100.71 173.404C100.698 173.309 100.725 173.215 100.784 173.14C100.842 173.065 100.928 173.017 101.022 173.006L103.763 172.296C103.81 172.284 103.858 172.281 103.906 172.288C103.954 172.294 103.999 172.31 104.041 172.335C104.083 172.359 104.119 172.391 104.148 172.43C104.177 172.468 104.198 172.512 104.21 172.559C104.222 172.605 104.225 172.654 104.219 172.701C104.212 172.749 104.196 172.795 104.172 172.837C104.147 172.878 104.115 172.915 104.076 172.944C104.038 172.973 103.994 172.994 103.948 173.006C103.039 173.252 102.123 173.489 101.2 173.716C101.165 173.726 101.128 173.726 101.093 173.716H101.107ZM106.589 172.232C106.512 172.233 106.436 172.209 106.375 172.162C106.313 172.116 106.269 172.051 106.248 171.976C106.224 171.885 106.236 171.788 106.283 171.706C106.329 171.623 106.406 171.563 106.497 171.536L109.216 170.748C109.305 170.721 109.402 170.731 109.484 170.775C109.567 170.819 109.628 170.893 109.656 170.982C109.67 171.027 109.675 171.074 109.671 171.121C109.666 171.167 109.652 171.213 109.629 171.254C109.607 171.295 109.576 171.331 109.539 171.36C109.502 171.389 109.46 171.41 109.415 171.423C108.513 171.692 107.604 171.962 106.688 172.218C106.652 172.232 106.613 172.236 106.575 172.232H106.589ZM21.0504 171.316C20.9735 171.317 20.8986 171.292 20.8374 171.245C20.0634 170.67 19.3179 170.059 18.6221 169.427C18.5888 169.394 18.5624 169.355 18.5444 169.312C18.5263 169.269 18.517 169.222 18.517 169.175C18.517 169.128 18.5263 169.082 18.5444 169.039C18.5624 168.995 18.5888 168.956 18.6221 168.923C18.6545 168.89 18.6931 168.864 18.7358 168.846C18.7785 168.828 18.8243 168.819 18.8706 168.819C18.9169 168.819 18.9627 168.828 19.0054 168.846C19.048 168.864 19.0867 168.89 19.1191 168.923C19.8109 169.551 20.5337 170.143 21.2847 170.698C21.36 170.755 21.4098 170.839 21.4232 170.932C21.4365 171.025 21.4122 171.12 21.3557 171.195C21.3179 171.238 21.2706 171.271 21.2175 171.292C21.1645 171.313 21.1072 171.321 21.0504 171.316ZM112.014 170.606C111.938 170.607 111.865 170.583 111.804 170.539C111.744 170.494 111.7 170.43 111.68 170.357C111.666 170.313 111.66 170.266 111.664 170.219C111.668 170.172 111.682 170.126 111.704 170.085C111.725 170.043 111.755 170.006 111.791 169.976C111.828 169.946 111.869 169.924 111.914 169.91C112.823 169.633 113.718 169.342 114.612 169.058C114.657 169.043 114.703 169.036 114.75 169.039C114.797 169.043 114.843 169.055 114.884 169.076C114.926 169.098 114.963 169.127 114.993 169.163C115.023 169.199 115.046 169.24 115.06 169.285C115.089 169.375 115.081 169.472 115.039 169.556C114.996 169.64 114.922 169.703 114.832 169.733C113.938 170.024 113.036 170.308 112.12 170.592C112.086 170.606 112.05 170.613 112.014 170.613V170.606ZM117.417 168.852C117.323 168.867 117.227 168.844 117.149 168.788C117.072 168.732 117.02 168.648 117.005 168.554C116.99 168.46 117.013 168.364 117.069 168.286C117.125 168.209 117.209 168.157 117.303 168.142C118.205 167.837 119.1 167.531 119.98 167.219C120.07 167.189 120.167 167.196 120.252 167.237C120.337 167.278 120.402 167.351 120.435 167.439C120.45 167.483 120.457 167.529 120.455 167.575C120.453 167.621 120.442 167.666 120.422 167.707C120.402 167.749 120.374 167.786 120.34 167.817C120.305 167.848 120.265 167.871 120.222 167.887C119.334 168.199 118.439 168.511 117.531 168.817L117.417 168.852ZM16.8683 167.503C16.8174 167.503 16.7672 167.492 16.7207 167.471C16.6743 167.45 16.6327 167.42 16.5984 167.382C15.9605 166.669 15.3631 165.919 14.8091 165.139C14.7771 165.101 14.7532 165.058 14.739 165.011C14.7247 164.963 14.7204 164.914 14.7264 164.865C14.7323 164.816 14.7483 164.769 14.7734 164.727C14.7985 164.684 14.8321 164.648 14.8721 164.619C14.9121 164.59 14.9577 164.57 15.0058 164.56C15.054 164.55 15.1037 164.55 15.1519 164.56C15.2001 164.57 15.2456 164.59 15.2856 164.619C15.3256 164.648 15.3592 164.684 15.3843 164.727C15.9241 165.486 16.5073 166.214 17.131 166.907C17.1965 166.974 17.2331 167.065 17.2331 167.159C17.2331 167.253 17.1965 167.343 17.131 167.411C17.0963 167.444 17.055 167.47 17.0099 167.488C16.9647 167.505 16.9165 167.512 16.8683 167.51V167.503ZM122.771 166.978C122.698 166.976 122.628 166.952 122.569 166.911C122.509 166.869 122.463 166.811 122.437 166.743C122.405 166.655 122.409 166.557 122.449 166.472C122.489 166.387 122.561 166.321 122.65 166.289C123.552 165.962 124.432 165.629 125.313 165.302C125.397 165.281 125.487 165.291 125.564 165.332C125.641 165.372 125.701 165.439 125.732 165.521C125.763 165.603 125.762 165.693 125.731 165.774C125.699 165.856 125.639 165.923 125.561 165.962C124.681 166.296 123.793 166.623 122.891 166.949C122.855 166.972 122.813 166.984 122.771 166.985V166.978ZM128.082 164.968C128.035 164.977 127.987 164.976 127.941 164.966C127.895 164.956 127.851 164.936 127.812 164.909C127.773 164.882 127.74 164.848 127.714 164.808C127.689 164.768 127.671 164.724 127.663 164.677C127.654 164.631 127.655 164.583 127.665 164.536C127.676 164.49 127.695 164.446 127.722 164.407C127.749 164.368 127.783 164.335 127.823 164.31C127.863 164.284 127.907 164.267 127.954 164.258L130.588 163.214C130.675 163.179 130.772 163.179 130.858 163.215C130.945 163.251 131.014 163.32 131.05 163.406C131.085 163.494 131.085 163.592 131.049 163.68C131.014 163.767 130.945 163.837 130.858 163.875L128.217 164.954C128.173 164.968 128.128 164.975 128.082 164.975V164.968ZM13.5879 162.895C13.5239 162.896 13.4608 162.879 13.4057 162.847C13.3506 162.814 13.3055 162.767 13.2755 162.71C12.8115 161.871 12.3966 161.006 12.0329 160.119C11.9971 160.031 11.9976 159.933 12.0342 159.846C12.0708 159.758 12.1406 159.689 12.2281 159.654C12.3157 159.618 12.4139 159.618 12.5011 159.655C12.5884 159.692 12.6575 159.761 12.6932 159.849C13.0422 160.714 13.4453 161.556 13.9003 162.369C13.9438 162.453 13.9534 162.55 13.9269 162.64C13.9004 162.73 13.8399 162.806 13.7583 162.852C13.7056 162.88 13.6472 162.894 13.5879 162.895ZM133.35 162.845C133.28 162.847 133.21 162.827 133.152 162.787C133.093 162.748 133.049 162.691 133.024 162.625C132.988 162.539 132.987 162.443 133.022 162.357C133.056 162.27 133.123 162.201 133.208 162.164C134.096 161.794 134.969 161.454 135.821 161.056C135.908 161.018 136.006 161.017 136.094 161.051C136.182 161.086 136.252 161.154 136.29 161.241C136.327 161.327 136.329 161.425 136.295 161.513C136.26 161.601 136.192 161.672 136.105 161.709L133.485 162.817C133.443 162.836 133.397 162.846 133.35 162.845ZM138.562 160.594C138.494 160.594 138.427 160.574 138.37 160.538C138.312 160.501 138.265 160.45 138.235 160.388C138.216 160.346 138.205 160.299 138.203 160.252C138.202 160.205 138.21 160.158 138.227 160.115C138.245 160.071 138.271 160.031 138.304 159.997C138.337 159.964 138.376 159.938 138.42 159.92C139.3 159.522 140.16 159.139 140.997 158.748C141.083 158.709 141.181 158.705 141.27 158.737C141.358 158.77 141.43 158.837 141.47 158.922C141.509 159.008 141.513 159.106 141.48 159.194C141.448 159.283 141.381 159.355 141.296 159.394C140.451 159.785 139.592 160.175 138.704 160.566C138.659 160.586 138.611 160.596 138.562 160.594ZM143.724 158.223C143.657 158.225 143.591 158.207 143.534 158.172C143.477 158.136 143.432 158.085 143.404 158.024C143.384 157.982 143.372 157.937 143.369 157.89C143.366 157.843 143.372 157.796 143.387 157.752C143.402 157.708 143.426 157.667 143.457 157.632C143.488 157.597 143.526 157.569 143.568 157.548C144.448 157.137 145.3 156.725 146.124 156.32C146.209 156.279 146.306 156.272 146.396 156.303C146.485 156.334 146.558 156.399 146.6 156.483C146.641 156.568 146.647 156.666 146.616 156.755C146.586 156.844 146.521 156.918 146.436 156.959L143.873 158.194C143.826 158.214 143.775 158.224 143.724 158.223ZM11.4436 157.634C11.3658 157.633 11.2904 157.607 11.2288 157.56C11.1672 157.512 11.1229 157.446 11.1027 157.371C10.8427 156.448 10.6341 155.512 10.4779 154.566C10.4628 154.472 10.4858 154.376 10.5417 154.298C10.5976 154.221 10.682 154.169 10.7761 154.154C10.8703 154.139 10.9666 154.162 11.0438 154.218C11.121 154.274 11.1729 154.358 11.1879 154.453C11.3298 155.381 11.5242 156.301 11.7702 157.208C11.7832 157.252 11.7873 157.299 11.7823 157.346C11.7772 157.392 11.7631 157.437 11.7406 157.478C11.7182 157.518 11.688 157.555 11.6516 157.584C11.6153 157.613 11.5735 157.635 11.5288 157.648L11.4436 157.634ZM148.808 155.738C148.741 155.739 148.676 155.721 148.619 155.685C148.562 155.65 148.517 155.599 148.488 155.539C148.446 155.455 148.439 155.358 148.468 155.269C148.498 155.18 148.561 155.106 148.645 155.063C149.518 154.623 150.363 154.197 151.172 153.771C151.256 153.728 151.354 153.719 151.444 153.748C151.533 153.777 151.608 153.84 151.652 153.924C151.695 154.007 151.703 154.105 151.674 154.195C151.646 154.285 151.583 154.36 151.499 154.403C150.689 154.822 149.844 155.255 148.964 155.695C148.916 155.722 148.863 155.737 148.808 155.738ZM153.849 153.118C153.785 153.119 153.722 153.102 153.667 153.069C153.612 153.037 153.567 152.99 153.537 152.933C153.493 152.85 153.484 152.753 153.51 152.663C153.537 152.573 153.597 152.497 153.679 152.45C154.559 151.982 155.39 151.527 156.171 151.101C156.212 151.072 156.258 151.052 156.307 151.043C156.356 151.033 156.407 151.033 156.456 151.045C156.504 151.056 156.55 151.077 156.59 151.107C156.63 151.137 156.663 151.175 156.687 151.219C156.711 151.263 156.726 151.311 156.73 151.361C156.734 151.411 156.728 151.461 156.711 151.508C156.695 151.556 156.668 151.599 156.634 151.635C156.6 151.671 156.558 151.7 156.512 151.719C155.731 152.152 154.9 152.606 154.012 153.082C153.968 153.105 153.92 153.117 153.87 153.118H153.849ZM10.4921 152.074C10.4015 152.074 10.3143 152.04 10.2483 151.978C10.1823 151.916 10.1425 151.831 10.1371 151.74C10.1371 151.186 10.0945 150.618 10.0945 150.057C10.0945 149.66 10.0945 149.262 10.0945 148.872C10.0954 148.825 10.1057 148.778 10.1249 148.736C10.1442 148.693 10.1719 148.654 10.2064 148.622C10.2409 148.591 10.2814 148.566 10.3257 148.55C10.3699 148.535 10.4168 148.528 10.4637 148.531C10.5103 148.533 10.5562 148.544 10.5985 148.563C10.6409 148.583 10.679 148.61 10.7107 148.645C10.7423 148.679 10.7669 148.719 10.783 148.763C10.7991 148.807 10.8064 148.853 10.8045 148.9C10.8045 149.283 10.8045 149.674 10.8045 150.057C10.8045 150.604 10.8045 151.158 10.8471 151.698C10.85 151.744 10.8437 151.791 10.8284 151.835C10.8132 151.879 10.7894 151.92 10.7584 151.955C10.7274 151.99 10.6898 152.019 10.6478 152.039C10.6057 152.059 10.5601 152.071 10.5134 152.074H10.4921ZM158.819 150.37C158.742 150.369 158.667 150.343 158.606 150.295C158.544 150.248 158.5 150.182 158.48 150.107C158.46 150.032 158.465 149.953 158.494 149.881C158.523 149.809 158.575 149.749 158.642 149.709C159.558 149.184 160.381 148.708 161.092 148.289C161.132 148.265 161.176 148.249 161.222 148.241C161.269 148.234 161.316 148.236 161.362 148.248C161.407 148.259 161.45 148.279 161.488 148.307C161.526 148.335 161.557 148.37 161.581 148.41C161.629 148.491 161.643 148.588 161.62 148.68C161.598 148.771 161.541 148.85 161.461 148.9C160.751 149.326 159.92 149.809 158.997 150.32C158.949 150.348 158.896 150.365 158.841 150.37H158.819ZM10.7406 146.415H10.6909C10.5972 146.401 10.5127 146.351 10.4556 146.275C10.3985 146.199 10.3734 146.104 10.3856 146.01C10.5134 145.08 10.6767 144.129 10.8897 143.17C10.9117 143.079 10.9685 142.999 11.0481 142.949C11.1276 142.898 11.2236 142.881 11.3158 142.9C11.3615 142.91 11.4049 142.929 11.4433 142.956C11.4817 142.983 11.5144 143.017 11.5394 143.057C11.5645 143.097 11.5815 143.141 11.5894 143.187C11.5973 143.233 11.596 143.281 11.5856 143.326C11.3797 144.242 11.2092 145.172 11.0885 146.088C11.0815 146.176 11.042 146.258 10.9776 146.319C10.9133 146.379 10.8288 146.413 10.7406 146.415ZM11.9761 140.884C11.9409 140.891 11.9047 140.891 11.8696 140.884C11.8247 140.87 11.7829 140.847 11.7468 140.817C11.7106 140.787 11.6808 140.751 11.659 140.709C11.6372 140.667 11.6239 140.622 11.6198 140.575C11.6158 140.528 11.621 140.481 11.6353 140.436C11.9122 139.542 12.2388 138.633 12.6009 137.738C12.6423 137.66 12.7112 137.6 12.7942 137.571C12.8773 137.541 12.9685 137.543 13.0501 137.576C13.1317 137.61 13.1978 137.673 13.2355 137.753C13.2732 137.833 13.2799 137.924 13.2542 138.008C12.9062 138.881 12.5867 139.769 12.3098 140.649C12.2869 140.719 12.242 140.78 12.1819 140.822C12.1217 140.864 12.0495 140.886 11.9761 140.884ZM14.1062 135.629C14.0386 135.649 13.9664 135.647 13.9003 135.622C13.8583 135.602 13.8207 135.573 13.7897 135.538C13.7588 135.503 13.735 135.463 13.7199 135.418C13.7047 135.374 13.6984 135.327 13.7013 135.281C13.7043 135.234 13.7164 135.189 13.737 135.147C14.1559 134.302 14.6174 133.457 15.1074 132.633C15.1302 132.592 15.1609 132.557 15.1977 132.528C15.2345 132.5 15.2767 132.479 15.3217 132.467C15.3668 132.455 15.4137 132.452 15.4598 132.459C15.506 132.465 15.5503 132.481 15.5902 132.505C15.6713 132.554 15.7301 132.633 15.7539 132.724C15.7778 132.816 15.7649 132.913 15.718 132.995C15.2352 133.798 14.7878 134.628 14.376 135.466C14.3434 135.513 14.2999 135.552 14.2493 135.579C14.1987 135.607 14.1423 135.621 14.0849 135.622L14.1062 135.629ZM16.9961 130.744C16.9022 130.747 16.8108 130.714 16.7405 130.652C16.7023 130.626 16.6698 130.592 16.6447 130.553C16.6197 130.514 16.6028 130.471 16.5948 130.425C16.5869 130.379 16.5882 130.333 16.5985 130.287C16.6089 130.242 16.6282 130.2 16.6552 130.162C17.1949 129.381 17.7771 128.607 18.3735 127.869C18.4331 127.797 18.5188 127.751 18.6118 127.742C18.7049 127.732 18.7979 127.76 18.8706 127.819C18.9437 127.878 18.9907 127.963 19.0014 128.056C19.012 128.149 18.9854 128.242 18.9274 128.316C18.338 129.026 17.77 129.8 17.2375 130.567C17.21 130.614 17.1721 130.655 17.1266 130.686C17.0811 130.717 17.0292 130.737 16.9748 130.744H16.9961ZM20.5463 126.342C20.4761 126.345 20.4069 126.326 20.3476 126.288C20.2883 126.251 20.2418 126.196 20.2141 126.131C20.1865 126.067 20.179 125.996 20.1927 125.927C20.2063 125.858 20.2405 125.795 20.2907 125.746C20.9439 125.036 21.6326 124.382 22.3427 123.743C22.3751 123.71 22.4137 123.684 22.4564 123.666C22.4991 123.648 22.5449 123.639 22.5912 123.639C22.6375 123.639 22.6833 123.648 22.726 123.666C22.7686 123.684 22.8073 123.71 22.8397 123.743C22.873 123.776 22.8994 123.816 22.9174 123.859C22.9354 123.902 22.9447 123.949 22.9447 123.995C22.9447 124.042 22.9354 124.089 22.9174 124.132C22.8994 124.175 22.873 124.214 22.8397 124.247C22.1297 124.872 21.4693 125.533 20.8303 126.214C20.7954 126.255 20.7518 126.288 20.7027 126.31C20.6536 126.332 20.6001 126.343 20.5463 126.342Z" fill="#D1D3D4"/>
<path d="M24.792 122.515C24.7386 122.515 24.6859 122.503 24.6378 122.48C24.5898 122.456 24.5478 122.422 24.5151 122.38C24.4575 122.304 24.4318 122.209 24.4438 122.115C24.4558 122.02 24.5043 121.934 24.579 121.876C24.9624 121.592 25.3459 121.308 25.7364 121.031C25.7745 121.001 25.8181 120.98 25.8648 120.968C25.9114 120.956 25.96 120.953 26.0076 120.96C26.0553 120.968 26.1009 120.985 26.1418 121.01C26.1827 121.036 26.2179 121.069 26.2454 121.109C26.2729 121.148 26.2921 121.193 26.3017 121.24C26.3114 121.287 26.3113 121.336 26.3016 121.383C26.2918 121.43 26.2725 121.475 26.245 121.515C26.2174 121.554 26.182 121.588 26.1411 121.613C25.7577 121.883 25.3814 122.16 25.0121 122.444C24.9488 122.491 24.8713 122.516 24.792 122.515Z" fill="#D1D3D4"/>
<path d="M184.026 80.0901C183.981 80.0915 183.936 80.0834 183.894 80.0662C183.853 80.0491 183.815 80.0234 183.784 79.9907C183.751 79.9583 183.725 79.9197 183.707 79.877C183.689 79.8343 183.68 79.7885 183.68 79.7422C183.68 79.6959 183.689 79.6501 183.707 79.6074C183.725 79.5648 183.751 79.5261 183.784 79.4937C183.784 79.4937 184.132 79.1245 184.736 78.4571C184.764 78.4153 184.801 78.3801 184.844 78.3539C184.887 78.3276 184.936 78.3108 184.986 78.3046C185.036 78.2985 185.087 78.3031 185.135 78.3182C185.183 78.3333 185.228 78.3584 185.265 78.3921C185.303 78.4257 185.333 78.467 185.354 78.5131C185.374 78.5593 185.384 78.6093 185.384 78.6598C185.384 78.7103 185.372 78.7602 185.351 78.806C185.33 78.8519 185.299 78.8927 185.261 78.9257C184.65 79.6357 184.295 79.9836 184.295 79.9836C184.261 80.0198 184.219 80.048 184.172 80.0663C184.126 80.0847 184.076 80.0928 184.026 80.0901Z" fill="#D1D3D4"/>
<path d="M186.866 76.8877C186.78 76.8874 186.697 76.8572 186.631 76.8025C186.598 76.7701 186.572 76.7315 186.554 76.6888C186.536 76.6461 186.527 76.6003 186.527 76.554C186.527 76.5077 186.536 76.4619 186.554 76.4192C186.572 76.3766 186.598 76.3379 186.631 76.3055C187.178 75.6523 187.789 74.8854 188.442 74.0973C188.501 74.0241 188.586 73.9771 188.679 73.9665C188.772 73.9558 188.865 73.9824 188.939 74.0405C188.976 74.0689 189.007 74.1045 189.03 74.1451C189.053 74.1857 189.068 74.2306 189.073 74.2769C189.078 74.3233 189.074 74.3703 189.061 74.415C189.048 74.4598 189.026 74.5015 188.996 74.5375C188.343 75.3611 187.725 76.1067 187.171 76.7599C187.135 76.8049 187.088 76.8401 187.035 76.8625C186.981 76.8848 186.923 76.8935 186.866 76.8877ZM190.416 72.4145C190.34 72.4114 190.266 72.3868 190.203 72.3435C190.128 72.2847 190.08 72.1988 190.068 72.1045C190.056 72.0102 190.081 71.9149 190.139 71.8393C190.686 71.1293 191.254 70.3483 191.829 69.5459C191.884 69.4687 191.967 69.4164 192.06 69.4004C192.153 69.3844 192.249 69.4061 192.326 69.4607C192.403 69.5153 192.455 69.5984 192.471 69.6916C192.487 69.7848 192.466 69.8805 192.411 69.9577C191.829 70.7672 191.261 71.5411 190.7 72.2725C190.672 72.3159 190.634 72.3525 190.59 72.3795C190.546 72.4065 190.496 72.4233 190.444 72.4287L190.416 72.4145ZM193.753 67.7495C193.688 67.7515 193.623 67.7352 193.567 67.7023C193.511 67.6695 193.465 67.6214 193.434 67.5636C193.404 67.5059 193.391 67.4408 193.395 67.3757C193.4 67.3106 193.423 67.2483 193.462 67.1957C193.98 66.4217 194.506 65.6265 195.017 64.8029C195.068 64.7241 195.148 64.6683 195.239 64.6471C195.33 64.6259 195.426 64.641 195.507 64.6892C195.586 64.7402 195.641 64.8204 195.661 64.9122C195.681 65.004 195.664 65.1 195.613 65.1792C195.124 65.9673 194.598 66.7768 194.051 67.5933C194.021 67.6382 193.981 67.6755 193.935 67.7026C193.888 67.7297 193.835 67.7457 193.782 67.7495H193.753ZM196.792 62.8928C196.729 62.8941 196.668 62.8768 196.615 62.8431C196.574 62.8203 196.538 62.7896 196.51 62.7528C196.481 62.716 196.46 62.6738 196.449 62.6288C196.437 62.5837 196.434 62.5368 196.44 62.4907C196.447 62.4446 196.463 62.4002 196.487 62.3603C196.97 61.5225 197.431 60.6775 197.85 59.861C197.893 59.7772 197.968 59.714 198.058 59.6854C198.148 59.6568 198.246 59.665 198.329 59.7083C198.413 59.7516 198.476 59.8265 198.505 59.9163C198.534 60.0062 198.525 60.1038 198.482 60.1876C198.056 61.0183 197.587 61.8633 197.097 62.7153C197.069 62.7651 197.029 62.8072 196.981 62.8381C196.933 62.869 196.878 62.8878 196.82 62.8928H196.792ZM199.426 57.8019C199.377 57.812 199.326 57.812 199.277 57.8019C199.235 57.7828 199.197 57.7554 199.165 57.7213C199.133 57.6873 199.109 57.6472 199.093 57.6035C199.077 57.5598 199.07 57.5134 199.073 57.467C199.075 57.4206 199.087 57.3751 199.107 57.3332C199.512 56.4457 199.888 55.5652 200.214 54.7132C200.231 54.6692 200.256 54.6289 200.288 54.5946C200.321 54.5604 200.359 54.5329 200.402 54.5138C200.445 54.4946 200.491 54.4842 200.538 54.4831C200.585 54.4819 200.632 54.4902 200.676 54.5073C200.764 54.5422 200.834 54.61 200.873 54.6962C200.911 54.7824 200.915 54.8802 200.882 54.9688C200.541 55.8351 200.172 56.7297 199.753 57.6244C199.722 57.6761 199.678 57.7194 199.626 57.7503C199.574 57.7813 199.515 57.799 199.455 57.8019H199.426ZM201.493 52.4624H201.386C201.296 52.433 201.222 52.3698 201.178 52.2863C201.134 52.2027 201.125 52.1054 201.152 52.015C201.436 51.0849 201.677 50.1618 201.862 49.2743C201.882 49.1833 201.938 49.104 202.016 49.0535C202.094 49.0031 202.189 48.9854 202.281 49.0045C202.372 49.025 202.452 49.08 202.504 49.1581C202.555 49.2362 202.575 49.3313 202.558 49.4234C202.359 50.3322 202.117 51.2766 201.848 52.2636C201.817 52.3239 201.77 52.3745 201.713 52.4096C201.655 52.4447 201.589 52.463 201.521 52.4624H201.493ZM202.685 46.8673H202.65C202.557 46.8582 202.471 46.8129 202.411 46.7412C202.352 46.6694 202.322 46.5769 202.33 46.4838C202.33 46.1856 202.387 45.8945 202.401 45.5963C202.401 44.9359 202.465 44.2827 202.487 43.6508C202.487 43.6039 202.496 43.5574 202.514 43.5143C202.533 43.4711 202.56 43.4321 202.593 43.3996C202.627 43.3671 202.667 43.3418 202.711 43.3251C202.755 43.3085 202.802 43.3009 202.849 43.3029C202.942 43.3065 203.031 43.3463 203.096 43.4138C203.161 43.4813 203.197 43.5713 203.197 43.665C203.197 44.3111 203.147 44.9643 203.111 45.6389C203.111 45.9442 203.069 46.2424 203.04 46.5477C203.03 46.635 202.988 46.7155 202.923 46.7743C202.858 46.8331 202.773 46.8661 202.685 46.8673ZM202.849 41.1443C202.756 41.1444 202.667 41.1079 202.6 41.0429C202.534 40.9778 202.496 40.8893 202.494 40.7964C202.494 39.8308 202.423 38.8793 202.352 37.9563C202.348 37.91 202.353 37.8634 202.368 37.8192C202.382 37.7751 202.405 37.7343 202.436 37.6992C202.466 37.6641 202.503 37.6355 202.545 37.615C202.587 37.5946 202.632 37.5826 202.678 37.5799C202.725 37.5761 202.772 37.5814 202.817 37.5958C202.861 37.6101 202.902 37.6331 202.938 37.6635C202.974 37.6938 203.003 37.7309 203.024 37.7727C203.045 37.8144 203.058 37.8599 203.062 37.9066C203.133 38.8367 203.182 39.8024 203.204 40.7822C203.204 40.8758 203.168 40.9659 203.103 41.0334C203.038 41.1009 202.949 41.1407 202.856 41.1443H202.849ZM202.387 35.464C202.301 35.4634 202.219 35.4324 202.154 35.3765C202.089 35.3206 202.046 35.2434 202.032 35.1587C201.897 34.2072 201.72 33.27 201.514 32.3753C201.493 32.2812 201.511 32.1827 201.563 32.1014C201.615 32.0202 201.697 31.9629 201.791 31.9422C201.885 31.9215 201.983 31.939 202.065 31.991C202.146 32.0429 202.203 32.125 202.224 32.2191C202.43 33.128 202.607 34.0865 202.749 35.0593C202.762 35.1522 202.738 35.2464 202.682 35.3218C202.626 35.3973 202.544 35.4483 202.451 35.464H202.387ZM201.102 29.8973C201.027 29.8982 200.954 29.8754 200.892 29.832C200.831 29.7886 200.785 29.727 200.761 29.6559C200.471 28.7622 200.132 27.8851 199.746 27.0287C199.726 26.9863 199.715 26.9405 199.713 26.8938C199.712 26.8471 199.719 26.8005 199.735 26.7566C199.751 26.7128 199.776 26.6725 199.808 26.6382C199.839 26.6039 199.877 26.5762 199.92 26.5566C199.962 26.537 200.008 26.526 200.055 26.5241C200.101 26.5222 200.148 26.5296 200.192 26.5458C200.236 26.5619 200.276 26.5865 200.31 26.6182C200.345 26.65 200.372 26.6881 200.392 26.7305C200.79 27.6122 201.138 28.5154 201.436 29.4358C201.465 29.5243 201.459 29.6209 201.417 29.7046C201.376 29.7883 201.304 29.8524 201.216 29.8831C201.178 29.8873 201.139 29.8849 201.102 29.876V29.8973ZM198.731 24.7069C198.67 24.7074 198.61 24.6926 198.557 24.6641C198.504 24.6356 198.458 24.5942 198.425 24.5436C197.936 23.7438 197.39 22.9798 196.792 22.2573C196.733 22.1846 196.705 22.0916 196.715 21.9985C196.724 21.9055 196.77 21.8198 196.842 21.7603C196.877 21.7298 196.918 21.7067 196.962 21.6923C197.006 21.678 197.053 21.6726 197.099 21.6766C197.146 21.6806 197.191 21.6938 197.232 21.7155C197.273 21.7371 197.309 21.7669 197.339 21.8029C197.955 22.5441 198.52 23.327 199.029 24.146C199.054 24.1853 199.072 24.2294 199.08 24.2757C199.088 24.322 199.087 24.3694 199.077 24.4152C199.066 24.461 199.046 24.5042 199.018 24.5421C198.991 24.58 198.956 24.6119 198.915 24.6359C198.86 24.6698 198.796 24.687 198.731 24.6856V24.7069ZM195.081 20.326C194.995 20.3245 194.913 20.2945 194.847 20.2408C194.148 19.6171 193.402 19.0475 192.617 18.5367C192.575 18.5128 192.539 18.4806 192.51 18.4421C192.481 18.4037 192.46 18.3597 192.448 18.3129C192.437 18.2661 192.435 18.2174 192.443 18.1698C192.451 18.1223 192.468 18.0769 192.494 18.0363C192.52 17.9958 192.554 17.961 192.594 17.934C192.634 17.907 192.679 17.8885 192.727 17.8795C192.774 17.8705 192.823 17.8713 192.87 17.8817C192.917 17.8921 192.961 17.9121 193 17.9402C193.818 18.4705 194.594 19.0615 195.322 19.7082C195.388 19.7758 195.424 19.8662 195.424 19.9603C195.424 20.0544 195.388 20.1448 195.322 20.2124C195.256 20.2718 195.17 20.3046 195.081 20.3047V20.326ZM190.302 17.2231C190.253 17.2329 190.202 17.2329 190.153 17.2231C189.298 16.8338 188.418 16.5017 187.519 16.229C187.425 16.2017 187.345 16.1381 187.298 16.0523C187.251 15.9664 187.24 15.8652 187.267 15.7711C187.294 15.6769 187.358 15.5975 187.444 15.5502C187.53 15.5029 187.631 15.4917 187.725 15.519C188.656 15.798 189.567 16.1396 190.451 16.5415C190.494 16.5605 190.532 16.5879 190.564 16.622C190.595 16.6561 190.62 16.6961 190.636 16.7398C190.651 16.7835 190.658 16.8299 190.656 16.8763C190.654 16.9228 190.642 16.9682 190.622 17.0101C190.592 17.069 190.546 17.1184 190.49 17.1523C190.433 17.1863 190.368 17.2034 190.302 17.2018V17.2231ZM184.835 15.5545H184.771C183.843 15.3931 182.907 15.2864 181.966 15.235C181.92 15.2323 181.874 15.2204 181.832 15.2C181.79 15.1796 181.752 15.1511 181.721 15.1161C181.69 15.0812 181.667 15.0404 181.651 14.9962C181.636 14.9521 181.63 14.9053 181.633 14.8587C181.632 14.811 181.642 14.7638 181.662 14.7203C181.681 14.6768 181.709 14.6379 181.745 14.6062C181.781 14.5746 181.823 14.551 181.868 14.537C181.914 14.523 181.962 14.5189 182.009 14.5249C182.975 14.5792 183.938 14.6882 184.892 14.8516C184.984 14.8689 185.067 14.9216 185.121 14.9985C185.175 15.0753 185.197 15.1704 185.183 15.2634C185.165 15.3416 185.121 15.4112 185.057 15.4603C184.994 15.5095 184.915 15.5352 184.835 15.5332V15.5545Z" fill="#D1D3D4"/>
<path d="M177.685 15.3485C177.639 15.3523 177.592 15.3468 177.547 15.3324C177.503 15.318 177.461 15.295 177.426 15.2646C177.39 15.2343 177.361 15.1973 177.34 15.1556C177.318 15.114 177.306 15.0685 177.302 15.0219C177.298 14.9753 177.304 14.9284 177.318 14.8839C177.332 14.8394 177.355 14.7982 177.386 14.7626C177.447 14.6907 177.534 14.646 177.628 14.6385C178.099 14.565 178.573 14.5175 179.048 14.4965C179.143 14.4908 179.235 14.5228 179.306 14.5854C179.376 14.648 179.419 14.7361 179.425 14.8302C179.43 14.9244 179.398 15.0169 179.336 15.0875C179.273 15.1581 179.185 15.2009 179.091 15.2065C178.232 15.2562 177.721 15.3343 177.721 15.3343L177.685 15.3485Z" fill="#D1D3D4"/>
<path d="M22.8045 26.4919L1.39642 43.9893C0.625198 44.6196 0.51099 45.7558 1.14133 46.527L10.1237 57.517C10.754 58.2882 11.8902 58.4024 12.6614 57.772L34.0695 40.2747C34.8407 39.6443 34.9549 38.5081 34.3246 37.7369L25.3423 26.747C24.7119 25.9758 23.5757 25.8616 22.8045 26.4919Z" fill="white"/>
<path d="M11.5285 58.5331H11.3084C10.7506 58.4701 10.2403 58.1894 9.88833 57.7521L0.870826 46.7465C0.688668 46.5287 0.551873 46.2768 0.468482 46.0054C0.385091 45.734 0.356786 45.4487 0.385231 45.1663C0.413676 44.8838 0.498298 44.6099 0.63412 44.3606C0.769943 44.1113 0.954228 43.8917 1.17614 43.7146L22.5838 26.2121C22.8016 26.03 23.0535 25.8932 23.3249 25.8098C23.5963 25.7264 23.8816 25.6981 24.164 25.7265C24.4465 25.755 24.7204 25.8396 24.9697 25.9754C25.219 26.1112 25.4387 26.2955 25.6157 26.5174L34.6048 37.516C34.787 37.7337 34.9238 37.9857 35.0071 38.257C35.0905 38.5284 35.1188 38.8137 35.0904 39.0962C35.062 39.3786 34.9773 39.6526 34.8415 39.9019C34.7057 40.1511 34.5214 40.3708 34.2995 40.5478L12.8918 58.0432C12.5086 58.3608 12.0262 58.5341 11.5285 58.5331ZM23.9471 26.4393C23.6146 26.4402 23.2921 26.5528 23.0312 26.7589L1.62347 44.2613C1.47921 44.382 1.36035 44.5302 1.27381 44.6971C1.18727 44.8641 1.13476 45.0466 1.11934 45.2341C1.08378 45.6171 1.19834 45.999 1.43886 46.2991L10.428 57.2906C10.5467 57.4387 10.694 57.5616 10.8611 57.6518C11.0282 57.7421 11.2117 57.7979 11.4007 57.816C11.7816 57.8519 12.1614 57.7372 12.4587 57.4965L33.8522 39.994C34.0017 39.8761 34.1259 39.7293 34.2176 39.5623C34.3092 39.3954 34.3663 39.2117 34.3855 39.0223C34.4047 38.8328 34.3857 38.6414 34.3294 38.4595C34.2731 38.2776 34.1809 38.1088 34.0581 37.9633L25.069 26.9861C24.936 26.8155 24.7658 26.6776 24.5713 26.5829C24.3769 26.4881 24.1634 26.439 23.9471 26.4393Z" fill="#D1D3D4"/>
<path d="M0.764412 45.4471C0.670255 45.4471 0.579954 45.4097 0.513374 45.3432C0.446795 45.2766 0.409392 45.1863 0.409392 45.0921C0.404508 45.0458 0.408958 44.999 0.42248 44.9545C0.436001 44.91 0.458319 44.8686 0.488111 44.8329C0.517904 44.7971 0.554566 44.7677 0.595927 44.7464C0.637288 44.725 0.682508 44.7122 0.72891 44.7087L18.5722 43.1608L23.6419 25.9849C23.6541 25.9397 23.6753 25.8973 23.7043 25.8604C23.7333 25.8236 23.7694 25.7929 23.8105 25.7704C23.8517 25.7478 23.8969 25.7338 23.9436 25.7292C23.9902 25.7246 24.0374 25.7295 24.0821 25.7435C24.1712 25.7714 24.2457 25.8332 24.2896 25.9156C24.3334 25.998 24.3431 26.0943 24.3164 26.1838L19.1899 43.5939C19.1713 43.6627 19.1321 43.724 19.0775 43.7697C19.0229 43.8154 18.9556 43.8433 18.8846 43.8495L0.799913 45.4471H0.764412Z" fill="#D1D3D4"/>
<path d="M19.5804 41.3006C19.4862 41.3006 19.3959 41.2632 19.3293 41.1966C19.2627 41.13 19.2253 41.0397 19.2253 40.9456C19.2253 40.8514 19.2627 40.7611 19.3293 40.6945C19.3959 40.628 19.4862 40.5906 19.5804 40.5906L34.6758 38.8652C34.7686 38.857 34.8609 38.8849 34.9337 38.9431C35.0064 39.0013 35.0539 39.0853 35.0663 39.1776C35.0723 39.2242 35.0689 39.2716 35.0563 39.317C35.0438 39.3623 35.0224 39.4047 34.9933 39.4417C34.9642 39.4787 34.9281 39.5096 34.887 39.5325C34.8459 39.5554 34.8007 39.5699 34.7539 39.5752L19.6443 41.3006H19.5804Z" fill="#D1D3D4"/>
<path d="M11.5074 58.5333C11.4722 58.54 11.4361 58.54 11.4009 58.5333C11.3561 58.5196 11.3145 58.4971 11.2786 58.4669C11.2427 58.4368 11.2132 58.3998 11.192 58.358C11.1708 58.3162 11.1582 58.2706 11.1551 58.2238C11.1519 58.1771 11.1583 58.1302 11.1737 58.0859L15.867 43.6366C15.8815 43.59 15.905 43.5467 15.9362 43.5091C15.9674 43.4716 16.0057 43.4406 16.0488 43.4178C16.092 43.3951 16.1393 43.3811 16.1879 43.3766C16.2365 43.3721 16.2855 43.3772 16.3321 43.3917C16.3787 43.4061 16.4221 43.4296 16.4596 43.4608C16.4971 43.492 16.5282 43.5303 16.5509 43.5735C16.5737 43.6167 16.5877 43.6639 16.5922 43.7125C16.5967 43.7611 16.5915 43.8101 16.5771 43.8567L11.8837 58.306C11.8546 58.38 11.802 58.4422 11.734 58.4833C11.666 58.5243 11.5864 58.5419 11.5074 58.5333Z" fill="#D1D3D4"/>
<path d="M215.892 103.249L195.495 94.4053C194.761 94.0871 193.908 94.4241 193.59 95.158L189.048 105.633C188.73 106.367 189.067 107.22 189.801 107.538L210.198 116.382C210.932 116.7 211.785 116.363 212.103 115.629L216.645 105.154C216.963 104.42 216.626 103.567 215.892 103.249Z" fill="white"/>
<path d="M210.787 116.849C210.543 116.847 210.301 116.796 210.077 116.699L189.685 107.852C189.466 107.76 189.268 107.626 189.102 107.456C188.937 107.287 188.806 107.086 188.719 106.865C188.538 106.422 188.538 105.925 188.719 105.481L193.256 95.0077C193.448 94.5703 193.805 94.2264 194.249 94.0508C194.693 93.8753 195.189 93.8823 195.628 94.0705L216.027 102.91C216.244 103.005 216.441 103.142 216.605 103.312C216.77 103.483 216.899 103.684 216.986 103.905C217.077 104.123 217.124 104.357 217.124 104.593C217.124 104.83 217.077 105.064 216.986 105.282L212.441 115.741C212.348 115.958 212.213 116.154 212.044 116.319C211.874 116.483 211.674 116.613 211.454 116.699C211.243 116.791 211.017 116.841 210.787 116.849ZM194.96 94.6314C194.747 94.632 194.539 94.6948 194.361 94.8121C194.183 94.9294 194.043 95.0961 193.959 95.2918L189.386 105.8C189.275 106.064 189.272 106.361 189.378 106.627C189.485 106.893 189.692 107.106 189.954 107.22L210.354 116.068C210.622 116.177 210.923 116.177 211.192 116.068C211.325 116.016 211.447 115.937 211.549 115.837C211.652 115.737 211.733 115.617 211.788 115.485L216.332 105.005C216.442 104.739 216.442 104.44 216.332 104.174C216.282 104.039 216.204 103.916 216.104 103.812C216.004 103.709 215.883 103.626 215.75 103.571L195.365 94.7237C195.238 94.6652 195.1 94.6338 194.96 94.6314Z" fill="#D1D3D4"/>
<path d="M202.295 107.036C202.235 107.037 202.176 107.023 202.124 106.994C202.072 106.965 202.028 106.923 201.997 106.873L194.186 94.5321C194.162 94.4924 194.145 94.4483 194.137 94.4023C194.13 94.3562 194.131 94.3091 194.142 94.2636C194.152 94.2181 194.172 94.1751 194.199 94.1371C194.226 94.0991 194.26 94.0668 194.3 94.0421C194.34 94.0174 194.384 94.0008 194.43 93.9931C194.476 93.9854 194.523 93.9869 194.568 93.9975C194.614 94.008 194.657 94.0274 194.695 94.0546C194.733 94.0817 194.765 94.1161 194.79 94.1557L202.444 106.29L216.538 103.585C216.584 103.575 216.631 103.574 216.678 103.582C216.724 103.591 216.768 103.608 216.807 103.634C216.846 103.66 216.879 103.694 216.905 103.733C216.931 103.772 216.949 103.816 216.957 103.862C216.974 103.955 216.954 104.051 216.901 104.129C216.848 104.208 216.766 104.262 216.673 104.281L202.345 107.036H202.295Z" fill="#D1D3D4"/>
<path d="M211.199 116.785C211.14 116.785 211.082 116.771 211.031 116.744C210.979 116.716 210.934 116.677 210.901 116.629L204.099 106.511C204.047 106.432 204.029 106.337 204.047 106.245C204.066 106.153 204.12 106.073 204.198 106.021C204.236 105.994 204.28 105.976 204.325 105.967C204.371 105.957 204.418 105.957 204.464 105.967C204.51 105.976 204.553 105.994 204.591 106.021C204.63 106.047 204.663 106.081 204.688 106.12L211.49 116.267C211.542 116.346 211.56 116.443 211.542 116.535C211.523 116.628 211.469 116.71 211.391 116.764C211.33 116.787 211.264 116.795 211.199 116.785Z" fill="#D1D3D4"/>
<path d="M189.103 107.22C189.017 107.222 188.935 107.192 188.87 107.137C188.804 107.083 188.761 107.006 188.747 106.922C188.74 106.876 188.743 106.829 188.754 106.784C188.765 106.738 188.785 106.696 188.813 106.658C188.84 106.62 188.875 106.589 188.915 106.565C188.955 106.54 189 106.524 189.046 106.517L201.116 104.544C201.163 104.536 201.211 104.538 201.257 104.549C201.302 104.56 201.346 104.58 201.384 104.607C201.422 104.635 201.455 104.67 201.479 104.71C201.504 104.75 201.521 104.795 201.528 104.842C201.536 104.888 201.534 104.936 201.523 104.982C201.512 105.028 201.492 105.071 201.464 105.109C201.437 105.148 201.402 105.18 201.362 105.205C201.321 105.23 201.277 105.246 201.23 105.254L189.159 107.228L189.103 107.22Z" fill="#D1D3D4"/>
<path d="M73.6808 16.496L58.2535 11.382C57.6989 11.1981 57.1002 11.4987 56.9164 12.0533L54.289 19.9792C54.1051 20.5338 54.4057 21.1325 54.9603 21.3163L70.3876 26.4304C70.9422 26.6142 71.5408 26.3137 71.7247 25.759L74.3521 17.8331C74.5359 17.2785 74.2354 16.6798 73.6808 16.496Z" fill="white"/>
<path d="M70.7034 26.8301C70.5539 26.8298 70.4053 26.8058 70.2632 26.7591L54.834 21.6468C54.4788 21.5272 54.1853 21.272 54.0175 20.9368C53.8501 20.6014 53.822 20.2135 53.9394 19.8575L56.5665 11.9335C56.685 11.5788 56.9387 11.2852 57.2723 11.1163C57.606 10.9475 57.9928 10.9171 58.3487 11.0317L73.7779 16.144C74.1329 16.2639 74.4262 16.5192 74.5938 16.8544C74.7614 17.1896 74.7897 17.5774 74.6726 17.9333L72.0525 25.8574C71.9585 26.1408 71.7775 26.3873 71.5353 26.5619C71.2931 26.7365 71.002 26.8304 70.7034 26.8301ZM70.4833 26.0846C70.6562 26.1556 70.8501 26.1556 71.0229 26.0846C71.1063 26.0426 71.1805 25.9847 71.2414 25.914C71.3024 25.8433 71.3488 25.7614 71.378 25.6728L74.0122 17.7558C74.0832 17.5829 74.0832 17.3891 74.0122 17.2162C73.9291 17.0493 73.7838 16.9218 73.6075 16.8612L58.1783 11.7489C57.9999 11.6913 57.8059 11.7066 57.6387 11.7915C57.4745 11.876 57.3497 12.0212 57.2908 12.1962L54.6636 20.1202C54.5963 20.2938 54.5963 20.4863 54.6636 20.6599C54.7498 20.8255 54.8978 20.9505 55.0755 21.0078L70.4833 26.0846Z" fill="#D1D3D4"/>
<path d="M63.9934 20.2408C63.9384 20.2403 63.8842 20.2272 63.835 20.2026C63.7858 20.178 63.7428 20.1425 63.7094 20.0988L57.2125 11.6209C57.1618 11.5461 57.1415 11.4548 57.1558 11.3656C57.1701 11.2763 57.2179 11.1959 57.2894 11.1407C57.3609 11.0854 57.4508 11.0596 57.5408 11.0683C57.6307 11.0771 57.7139 11.1198 57.7735 11.1878L64.0999 19.4739L74.1257 16.6338C74.1709 16.6209 74.2183 16.6171 74.265 16.6226C74.3117 16.6281 74.3568 16.6429 74.3978 16.666C74.4387 16.6891 74.4747 16.7201 74.5036 16.7573C74.5324 16.7944 74.5536 16.8369 74.5659 16.8823C74.5899 16.9727 74.5772 17.0688 74.5307 17.1499C74.4841 17.231 74.4075 17.2905 74.3174 17.3154L64.0644 20.255L63.9934 20.2408Z" fill="#D1D3D4"/>
<path d="M71.1081 26.7588C71.0546 26.7596 71.0016 26.7479 70.9535 26.7244C70.9054 26.701 70.8635 26.6666 70.8312 26.6239L65.2219 19.6797C65.1625 19.6063 65.1348 19.5123 65.1448 19.4184C65.1548 19.3245 65.2017 19.2385 65.2751 19.1791C65.3486 19.1198 65.4426 19.0921 65.5364 19.1021C65.6303 19.1121 65.7164 19.159 65.7757 19.2324L71.385 26.1837C71.4431 26.2573 71.4697 26.3508 71.459 26.4439C71.4484 26.537 71.4014 26.6221 71.3282 26.6807C71.2655 26.7303 71.1881 26.7578 71.1081 26.7588Z" fill="#D1D3D4"/>
<path d="M54.3723 21.2207C54.3257 21.2263 54.2784 21.2226 54.2332 21.21C54.188 21.1973 54.1457 21.1758 54.1088 21.1468C54.0719 21.1178 54.0411 21.0818 54.018 21.0409C53.995 21 53.9803 20.9549 53.9747 20.9083C53.9691 20.8616 53.9728 20.8144 53.9854 20.7692C53.9981 20.724 54.0196 20.6817 54.0486 20.6448C54.0776 20.6078 54.1136 20.577 54.1545 20.554C54.1954 20.531 54.2405 20.5162 54.2871 20.5106L62.9354 18.2953C62.9806 18.2836 63.0277 18.2809 63.074 18.2874C63.1203 18.2939 63.1648 18.3095 63.205 18.3332C63.2453 18.357 63.2804 18.3884 63.3085 18.4258C63.3365 18.4631 63.357 18.5057 63.3685 18.5509C63.3802 18.5957 63.3828 18.6423 63.3762 18.6881C63.3696 18.7339 63.354 18.778 63.3302 18.8176C63.3064 18.8573 63.2749 18.8918 63.2376 18.9192C63.2003 18.9465 63.1579 18.9662 63.1129 18.977L54.4646 21.1994L54.3723 21.2207Z" fill="#D1D3D4"/>
</svg>
